<svg width="4" height="16" viewBox="0 0 4 16" fill="none" xmlns="http://www.w3.org/2000/svg">
<path d="M2.00001 4.4C1.0059 4.4 0.200012 3.59412 0.200012 2.6C0.200012 1.60589 1.0059 0.800003 2.00001 0.800003C2.99412 0.800003 3.80001 1.60589 3.80001 2.6C3.80001 3.59412 2.99412 4.4 2.00001 4.4Z" fill="#64748B"/>
<path d="M2.00001 9.8C1.0059 9.8 0.200012 8.99412 0.200012 8C0.200012 7.00589 1.0059 6.2 2.00001 6.2C2.99412 6.2 3.80001 7.00589 3.80001 8C3.80001 8.99412 2.99412 9.8 2.00001 9.8Z" fill="#64748B"/>
<path d="M2.00001 15.2C1.0059 15.2 0.200012 14.3941 0.200012 13.4C0.200012 12.4059 1.0059 11.6 2.00001 11.6C2.99412 11.6 3.80001 12.4059 3.80001 13.4C3.80001 14.3941 2.99412 15.2 2.00001 15.2Z" fill="#64748B"/>
</svg>
