<svg width="366" height="38" viewBox="0 0 366 38" fill="none" xmlns="http://www.w3.org/2000/svg">
<path d="M8.74432 9.18182C8.66761 8.53409 8.35653 8.03125 7.81108 7.6733C7.26563 7.31534 6.59659 7.13636 5.80398 7.13636C5.22443 7.13636 4.71733 7.23011 4.28267 7.41761C3.85227 7.60511 3.51563 7.86293 3.27273 8.19105C3.03409 8.51918 2.91477 8.89204 2.91477 9.30966C2.91477 9.65909 2.99787 9.95952 3.16406 10.2109C3.33452 10.4581 3.55185 10.6648 3.81605 10.831C4.08026 10.9929 4.35724 11.1271 4.64702 11.2337C4.93679 11.3359 5.20312 11.419 5.44602 11.483L6.77557 11.8409C7.11648 11.9304 7.49574 12.054 7.91335 12.2116C8.33523 12.3693 8.73793 12.5845 9.12145 12.8572C9.50923 13.1257 9.82884 13.4709 10.0803 13.8928C10.3317 14.3146 10.4574 14.8324 10.4574 15.446C10.4574 16.1534 10.272 16.7926 9.90128 17.3636C9.5348 17.9347 8.99787 18.3885 8.29048 18.7251C7.58736 19.0618 6.73295 19.2301 5.72727 19.2301C4.78977 19.2301 3.97798 19.0788 3.2919 18.7763C2.61009 18.4737 2.07315 18.0518 1.68111 17.5107C1.29332 16.9695 1.07386 16.3409 1.02273 15.625H2.65909C2.7017 16.1193 2.8679 16.5284 3.15767 16.8523C3.4517 17.1719 3.82244 17.4105 4.26989 17.5682C4.72159 17.7216 5.20739 17.7983 5.72727 17.7983C6.33239 17.7983 6.87571 17.7003 7.35724 17.5043C7.83878 17.304 8.22017 17.027 8.50142 16.6733C8.78267 16.3153 8.9233 15.8977 8.9233 15.4205C8.9233 14.9858 8.80185 14.6321 8.55895 14.3594C8.31605 14.0866 7.99645 13.8651 7.60014 13.6946C7.20384 13.5241 6.77557 13.375 6.31534 13.2472L4.70455 12.7869C3.68182 12.4929 2.87216 12.0732 2.27557 11.5277C1.67898 10.9822 1.38068 10.2685 1.38068 9.38636C1.38068 8.65341 1.57884 8.0142 1.97514 7.46875C2.37571 6.91903 2.91264 6.4929 3.58594 6.19034C4.26349 5.88352 5.01989 5.73011 5.85511 5.73011C6.69886 5.73011 7.44886 5.88139 8.10511 6.18395C8.76136 6.48224 9.28125 6.89133 9.66477 7.41122C10.0526 7.93111 10.2571 8.52131 10.2784 9.18182H8.74432ZM17.127 5.29545L12.9083 20.9688H11.5276L15.7464 5.29545H17.127ZM27.3998 5.73011C27.9367 5.73437 28.4736 5.83665 29.0106 6.03693C29.5475 6.23722 30.0375 6.5696 30.4807 7.03409C30.9239 7.49432 31.2797 8.12287 31.5482 8.91974C31.8167 9.71662 31.9509 10.7159 31.9509 11.9176C31.9509 13.081 31.8401 14.1143 31.6185 15.0178C31.4012 15.9169 31.0858 16.6754 30.6725 17.2933C30.2634 17.9112 29.7648 18.38 29.1767 18.6996C28.5929 19.0192 27.9324 19.179 27.1952 19.179C26.4623 19.179 25.8081 19.0341 25.2329 18.7443C24.6618 18.4503 24.1931 18.0433 23.8266 17.5234C23.4644 16.9993 23.2321 16.392 23.1299 15.7017H24.6895C24.8302 16.3026 25.1093 16.799 25.5269 17.1911C25.9488 17.5788 26.5049 17.7727 27.1952 17.7727C28.2052 17.7727 29.002 17.3317 29.5858 16.4496C30.1739 15.5675 30.4679 14.321 30.4679 12.7102H30.3657C30.127 13.0682 29.8437 13.3771 29.5155 13.6371C29.1874 13.897 28.8231 14.0973 28.4225 14.2379C28.0219 14.3786 27.5958 14.4489 27.1441 14.4489C26.3941 14.4489 25.7059 14.2635 25.0794 13.8928C24.4573 13.5178 23.9587 13.0043 23.5837 12.3523C23.213 11.696 23.0276 10.946 23.0276 10.1023C23.0276 9.30114 23.2066 8.56818 23.5645 7.90341C23.9267 7.23437 24.4338 6.7017 25.0858 6.3054C25.7421 5.90909 26.5134 5.71733 27.3998 5.73011ZM27.3998 7.13636C26.8628 7.13636 26.3792 7.2706 25.9488 7.53906C25.5226 7.80327 25.1838 8.16122 24.9324 8.61293C24.6853 9.06037 24.5617 9.55682 24.5617 10.1023C24.5617 10.6477 24.681 11.1442 24.9196 11.5916C25.1625 12.0348 25.4928 12.3885 25.9104 12.6527C26.3323 12.9126 26.8117 13.0426 27.3486 13.0426C27.7535 13.0426 28.1306 12.9638 28.48 12.8061C28.8294 12.6442 29.1341 12.4247 29.3941 12.1477C29.6583 11.8665 29.865 11.549 30.0141 11.1953C30.1633 10.8374 30.2378 10.4645 30.2378 10.0767C30.2378 9.56534 30.1142 9.08594 29.8671 8.63849C29.6242 8.19105 29.2875 7.82884 28.8571 7.55185C28.431 7.27486 27.9452 7.13636 27.3998 7.13636ZM38.3745 19.179C37.4114 19.179 36.5911 18.9169 35.9135 18.3928C35.236 17.8643 34.7182 17.0994 34.3603 16.098C34.0023 15.0923 33.8233 13.8778 33.8233 12.4545C33.8233 11.0398 34.0023 9.83168 34.3603 8.83026C34.7225 7.82457 35.2424 7.05753 35.9199 6.52912C36.6017 5.99645 37.4199 5.73011 38.3745 5.73011C39.329 5.73011 40.1451 5.99645 40.8226 6.52912C41.5044 7.05753 42.0243 7.82457 42.3823 8.83026C42.7445 9.83168 42.9256 11.0398 42.9256 12.4545C42.9256 13.8778 42.7466 15.0923 42.3887 16.098C42.0307 17.0994 41.5129 17.8643 40.8354 18.3928C40.1578 18.9169 39.3375 19.179 38.3745 19.179ZM38.3745 17.7727C39.329 17.7727 40.0705 17.3125 40.5989 16.392C41.1273 15.4716 41.3915 14.1591 41.3915 12.4545C41.3915 11.321 41.2701 10.3558 41.0272 9.55895C40.7885 8.76207 40.4433 8.15483 39.9916 7.73722C39.5442 7.3196 39.0051 7.1108 38.3745 7.1108C37.4284 7.1108 36.6891 7.57741 36.1564 8.51065C35.6237 9.43963 35.3574 10.7543 35.3574 12.4545C35.3574 13.5881 35.4767 14.5511 35.7154 15.3438C35.954 16.1364 36.297 16.7393 36.7445 17.1527C37.1962 17.5661 37.7395 17.7727 38.3745 17.7727ZM49.2645 19.179C48.3014 19.179 47.4811 18.9169 46.8035 18.3928C46.126 17.8643 45.6082 17.0994 45.2502 16.098C44.8923 15.0923 44.7133 13.8778 44.7133 12.4545C44.7133 11.0398 44.8923 9.83168 45.2502 8.83026C45.6125 7.82457 46.1324 7.05753 46.8099 6.52912C47.4917 5.99645 48.3099 5.73011 49.2645 5.73011C50.219 5.73011 51.0351 5.99645 51.7126 6.52912C52.3944 7.05753 52.9143 7.82457 53.2723 8.83026C53.6345 9.83168 53.8156 11.0398 53.8156 12.4545C53.8156 13.8778 53.6366 15.0923 53.2787 16.098C52.9207 17.0994 52.4029 17.8643 51.7254 18.3928C51.0478 18.9169 50.2275 19.179 49.2645 19.179ZM49.2645 17.7727C50.219 17.7727 50.9605 17.3125 51.4889 16.392C52.0173 15.4716 52.2815 14.1591 52.2815 12.4545C52.2815 11.321 52.1601 10.3558 51.9172 9.55895C51.6785 8.76207 51.3333 8.15483 50.8816 7.73722C50.4342 7.3196 49.8951 7.1108 49.2645 7.1108C48.3184 7.1108 47.5791 7.57741 47.0464 8.51065C46.5137 9.43963 46.2474 10.7543 46.2474 12.4545C46.2474 13.5881 46.3667 14.5511 46.6054 15.3438C46.844 16.1364 47.187 16.7393 47.6345 17.1527C48.0862 17.5661 48.6295 17.7727 49.2645 17.7727Z" fill="#4F46E5"/>
<path d="M63.2376 9.86364L60.4251 20.3125H59.5047L62.3172 9.86364H63.2376ZM72.7138 12.4545C72.6627 12.0227 72.4553 11.6875 72.0917 11.4489C71.7281 11.2102 71.282 11.0909 70.7536 11.0909C70.3673 11.0909 70.0292 11.1534 69.7394 11.2784C69.4525 11.4034 69.2281 11.5753 69.0661 11.794C68.907 12.0128 68.8275 12.2614 68.8275 12.5398C68.8275 12.7727 68.8829 12.973 68.9937 13.1406C69.1073 13.3054 69.2522 13.4432 69.4283 13.554C69.6045 13.6619 69.7891 13.7514 69.9823 13.8224C70.1755 13.8906 70.3531 13.946 70.515 13.9886L71.4013 14.2273C71.6286 14.2869 71.8815 14.3693 72.1599 14.4744C72.4411 14.5795 72.7096 14.723 72.9653 14.9048C73.2238 15.0838 73.4369 15.3139 73.6045 15.5952C73.7721 15.8764 73.8559 16.2216 73.8559 16.6307C73.8559 17.1023 73.7323 17.5284 73.4852 17.9091C73.2408 18.2898 72.8829 18.5923 72.4113 18.8168C71.9425 19.0412 71.3729 19.1534 70.7025 19.1534C70.0775 19.1534 69.5363 19.0526 69.0789 18.8509C68.6244 18.6491 68.2664 18.3679 68.005 18.0071C67.7465 17.6463 67.6002 17.2273 67.5661 16.75H68.657C68.6854 17.0795 68.7962 17.3523 68.9894 17.5682C69.1854 17.7812 69.4326 17.9403 69.7309 18.0455C70.032 18.1477 70.3559 18.1989 70.7025 18.1989C71.1059 18.1989 71.4681 18.1335 71.7891 18.0028C72.1102 17.8693 72.3644 17.6847 72.5519 17.4489C72.7394 17.2102 72.8332 16.9318 72.8332 16.6136C72.8332 16.3239 72.7522 16.0881 72.5903 15.9062C72.4283 15.7244 72.2153 15.5767 71.9511 15.4631C71.6869 15.3494 71.4013 15.25 71.0945 15.1648L70.0207 14.858C69.3388 14.6619 68.7991 14.3821 68.4013 14.0185C68.0036 13.6548 67.8048 13.179 67.8048 12.5909C67.8048 12.1023 67.9369 11.6761 68.2011 11.3125C68.4681 10.946 68.8261 10.6619 69.2749 10.4602C69.7266 10.2557 70.2309 10.1534 70.7877 10.1534C71.3502 10.1534 71.8502 10.2543 72.2877 10.456C72.7252 10.6548 73.0718 10.9276 73.3275 11.2741C73.586 11.6207 73.7224 12.0142 73.7366 12.4545H72.7138ZM78.5423 9.86364L75.7298 20.3125H74.8094L77.6219 9.86364H78.5423ZM86.1606 10.2727V19H85.1038V11.3807H85.0526L82.9219 12.7955V11.7216L85.1038 10.2727H86.1606ZM91.5171 19.1193C90.8751 19.1193 90.3282 18.9446 89.8765 18.5952C89.4248 18.2429 89.0796 17.733 88.841 17.0653C88.6023 16.3949 88.483 15.5852 88.483 14.6364C88.483 13.6932 88.6023 12.8878 88.841 12.2202C89.0825 11.5497 89.429 11.0384 89.8807 10.6861C90.3353 10.331 90.8807 10.1534 91.5171 10.1534C92.1535 10.1534 92.6975 10.331 93.1492 10.6861C93.6038 11.0384 93.9504 11.5497 94.189 12.2202C94.4305 12.8878 94.5512 13.6932 94.5512 14.6364C94.5512 15.5852 94.4319 16.3949 94.1932 17.0653C93.9546 17.733 93.6094 18.2429 93.1577 18.5952C92.706 18.9446 92.1592 19.1193 91.5171 19.1193ZM91.5171 18.1818C92.1535 18.1818 92.6478 17.875 93.0001 17.2614C93.3523 16.6477 93.5285 15.7727 93.5285 14.6364C93.5285 13.8807 93.4475 13.2372 93.2856 12.706C93.1265 12.1747 92.8964 11.7699 92.5952 11.4915C92.2969 11.2131 91.9376 11.0739 91.5171 11.0739C90.8864 11.0739 90.3935 11.3849 90.0384 12.0071C89.6833 12.6264 89.5057 13.5028 89.5057 14.6364C89.5057 15.392 89.5853 16.0341 89.7444 16.5625C89.9035 17.0909 90.1322 17.4929 90.4305 17.7685C90.7316 18.044 91.0938 18.1818 91.5171 18.1818ZM99.0171 19.1193C98.3751 19.1193 97.8282 18.9446 97.3765 18.5952C96.9248 18.2429 96.5796 17.733 96.341 17.0653C96.1023 16.3949 95.983 15.5852 95.983 14.6364C95.983 13.6932 96.1023 12.8878 96.341 12.2202C96.5825 11.5497 96.929 11.0384 97.3807 10.6861C97.8353 10.331 98.3807 10.1534 99.0171 10.1534C99.6535 10.1534 100.198 10.331 100.649 10.6861C101.104 11.0384 101.45 11.5497 101.689 12.2202C101.93 12.8878 102.051 13.6932 102.051 14.6364C102.051 15.5852 101.932 16.3949 101.693 17.0653C101.455 17.733 101.109 18.2429 100.658 18.5952C100.206 18.9446 99.6592 19.1193 99.0171 19.1193ZM99.0171 18.1818C99.6535 18.1818 100.148 17.875 100.5 17.2614C100.852 16.6477 101.028 15.7727 101.028 14.6364C101.028 13.8807 100.948 13.2372 100.786 12.706C100.626 12.1747 100.396 11.7699 100.095 11.4915C99.7969 11.2131 99.4376 11.0739 99.0171 11.0739C98.3864 11.0739 97.8935 11.3849 97.5384 12.0071C97.1833 12.6264 97.0057 13.5028 97.0057 14.6364C97.0057 15.392 97.0853 16.0341 97.2444 16.5625C97.4035 17.0909 97.6322 17.4929 97.9305 17.7685C98.2316 18.044 98.5938 18.1818 99.0171 18.1818ZM106.517 19.1193C105.875 19.1193 105.328 18.9446 104.876 18.5952C104.425 18.2429 104.08 17.733 103.841 17.0653C103.602 16.3949 103.483 15.5852 103.483 14.6364C103.483 13.6932 103.602 12.8878 103.841 12.2202C104.082 11.5497 104.429 11.0384 104.881 10.6861C105.335 10.331 105.881 10.1534 106.517 10.1534C107.153 10.1534 107.698 10.331 108.149 10.6861C108.604 11.0384 108.95 11.5497 109.189 12.2202C109.43 12.8878 109.551 13.6932 109.551 14.6364C109.551 15.5852 109.432 16.3949 109.193 17.0653C108.955 17.733 108.609 18.2429 108.158 18.5952C107.706 18.9446 107.159 19.1193 106.517 19.1193ZM106.517 18.1818C107.153 18.1818 107.648 17.875 108 17.2614C108.352 16.6477 108.528 15.7727 108.528 14.6364C108.528 13.8807 108.448 13.2372 108.286 12.706C108.126 12.1747 107.896 11.7699 107.595 11.4915C107.297 11.2131 106.938 11.0739 106.517 11.0739C105.886 11.0739 105.394 11.3849 105.038 12.0071C104.683 12.6264 104.506 13.5028 104.506 14.6364C104.506 15.392 104.585 16.0341 104.744 16.5625C104.903 17.0909 105.132 17.4929 105.43 17.7685C105.732 18.044 106.094 18.1818 106.517 18.1818Z" fill="#B8B6F7"/>
<path d="M341.295 8.67898C341.713 8.68229 342.131 8.76184 342.548 8.91761C342.966 9.07339 343.347 9.33191 343.692 9.69318C344.036 10.0511 344.313 10.54 344.522 11.1598C344.731 11.7796 344.835 12.5568 344.835 13.4915C344.835 14.3963 344.749 15.2 344.577 15.9027C344.408 16.602 344.162 17.192 343.841 17.6726C343.523 18.1532 343.135 18.5178 342.678 18.7663C342.223 19.0149 341.71 19.1392 341.136 19.1392C340.566 19.1392 340.058 19.0265 339.61 18.8011C339.166 18.5724 338.801 18.2559 338.516 17.8516C338.235 17.4439 338.054 16.9716 337.974 16.4347H339.188C339.297 16.902 339.514 17.2881 339.839 17.593C340.167 17.8946 340.599 18.0455 341.136 18.0455C341.922 18.0455 342.542 17.7024 342.996 17.0163C343.453 16.3303 343.682 15.3608 343.682 14.108H343.602C343.417 14.3864 343.196 14.6267 342.941 14.8288C342.686 15.031 342.402 15.1868 342.091 15.2962C341.779 15.4055 341.448 15.4602 341.097 15.4602C340.513 15.4602 339.978 15.3161 339.491 15.0277C339.007 14.736 338.619 14.3366 338.327 13.8295C338.039 13.3191 337.895 12.7358 337.895 12.0795C337.895 11.4564 338.034 10.8864 338.312 10.3693C338.594 9.84896 338.989 9.43466 339.496 9.12642C340.006 8.81818 340.606 8.66903 341.295 8.67898ZM341.295 9.77273C340.878 9.77273 340.502 9.87713 340.167 10.0859C339.835 10.2914 339.572 10.5698 339.376 10.9212C339.184 11.2692 339.088 11.6553 339.088 12.0795C339.088 12.5038 339.181 12.8899 339.366 13.2379C339.555 13.5826 339.812 13.8577 340.137 14.0632C340.465 14.2654 340.838 14.3665 341.256 14.3665C341.571 14.3665 341.864 14.3052 342.136 14.1825C342.407 14.0566 342.644 13.8859 342.847 13.6705C343.052 13.4517 343.213 13.2048 343.329 12.9297C343.445 12.6513 343.503 12.3613 343.503 12.0597C343.503 11.6619 343.407 11.2891 343.214 10.9411C343.026 10.593 342.764 10.3113 342.429 10.0959C342.098 9.88044 341.72 9.77273 341.295 9.77273ZM350.111 19.1392C349.362 19.1392 348.724 18.9354 348.197 18.5277C347.67 18.1167 347.268 17.5218 346.989 16.7429C346.711 15.9607 346.572 15.0161 346.572 13.9091C346.572 12.8087 346.711 11.8691 346.989 11.0902C347.271 10.308 347.675 9.71141 348.202 9.30043C348.733 8.88613 349.369 8.67898 350.111 8.67898C350.854 8.67898 351.488 8.88613 352.015 9.30043C352.546 9.71141 352.95 10.308 353.229 11.0902C353.51 11.8691 353.651 12.8087 353.651 13.9091C353.651 15.0161 353.512 15.9607 353.233 16.7429C352.955 17.5218 352.552 18.1167 352.025 18.5277C351.498 18.9354 350.86 19.1392 350.111 19.1392ZM350.111 18.0455C350.854 18.0455 351.43 17.6875 351.841 16.9716C352.252 16.2557 352.458 15.2348 352.458 13.9091C352.458 13.0275 352.363 12.2768 352.175 11.657C351.989 11.0372 351.72 10.5649 351.369 10.2401C351.021 9.91525 350.602 9.75284 350.111 9.75284C349.376 9.75284 348.8 10.1158 348.386 10.8416C347.972 11.5642 347.765 12.5866 347.765 13.9091C347.765 14.7907 347.858 15.5398 348.043 16.1562C348.229 16.7727 348.496 17.2417 348.844 17.5632C349.195 17.8847 349.617 18.0455 350.111 18.0455ZM360.731 17.0909V16.554C360.731 16.1828 360.807 15.843 360.959 15.5348C361.115 15.2232 361.34 14.9747 361.635 14.7891C361.934 14.6001 362.295 14.5057 362.719 14.5057C363.15 14.5057 363.511 14.6001 363.803 14.7891C364.095 14.9747 364.315 15.2232 364.464 15.5348C364.613 15.843 364.688 16.1828 364.688 16.554V17.0909C364.688 17.4621 364.612 17.8035 364.459 18.1151C364.31 18.4233 364.088 18.6719 363.793 18.8608C363.501 19.0464 363.144 19.1392 362.719 19.1392C362.288 19.1392 361.925 19.0464 361.631 18.8608C361.336 18.6719 361.112 18.4233 360.959 18.1151C360.807 17.8035 360.731 17.4621 360.731 17.0909ZM361.745 16.554V17.0909C361.745 17.3991 361.818 17.6759 361.964 17.9212C362.109 18.1631 362.361 18.2841 362.719 18.2841C363.067 18.2841 363.313 18.1631 363.455 17.9212C363.601 17.6759 363.674 17.3991 363.674 17.0909V16.554C363.674 16.2457 363.604 15.9706 363.465 15.7287C363.326 15.4834 363.077 15.3608 362.719 15.3608C362.371 15.3608 362.121 15.4834 361.969 15.7287C361.819 15.9706 361.745 16.2457 361.745 16.554ZM355.66 11.2642V10.7273C355.66 10.3561 355.736 10.0163 355.888 9.7081C356.044 9.39654 356.269 9.14796 356.564 8.96236C356.863 8.77344 357.224 8.67898 357.648 8.67898C358.079 8.67898 358.44 8.77344 358.732 8.96236C359.024 9.14796 359.244 9.39654 359.393 9.7081C359.542 10.0163 359.617 10.3561 359.617 10.7273V11.2642C359.617 11.6354 359.541 11.9768 359.388 12.2884C359.239 12.5966 359.017 12.8452 358.722 13.0341C358.43 13.2197 358.073 13.3125 357.648 13.3125C357.217 13.3125 356.854 13.2197 356.559 13.0341C356.265 12.8452 356.041 12.5966 355.888 12.2884C355.736 11.9768 355.66 11.6354 355.66 11.2642ZM356.674 10.7273V11.2642C356.674 11.5724 356.747 11.8492 356.893 12.0945C357.038 12.3364 357.29 12.4574 357.648 12.4574C357.996 12.4574 358.242 12.3364 358.384 12.0945C358.53 11.8492 358.603 11.5724 358.603 11.2642V10.7273C358.603 10.419 358.533 10.1439 358.394 9.90199C358.255 9.65672 358.006 9.53409 357.648 9.53409C357.3 9.53409 357.05 9.65672 356.898 9.90199C356.748 10.1439 356.674 10.419 356.674 10.7273ZM356.037 19L363.037 8.81818H364.171L357.171 19H356.037Z" fill="#5B6776"/>
<rect y="28" width="366" height="10" rx="5" fill="#F7F8FD"/>
<rect y="28" width="337.1" height="10" rx="5" fill="#4F46E5"/>
</svg>
