<svg width="370" height="38" viewBox="0 0 370 38" fill="none" xmlns="http://www.w3.org/2000/svg">
<path d="M8.74432 9.18182C8.66761 8.53409 8.35653 8.03125 7.81108 7.6733C7.26563 7.31534 6.59659 7.13636 5.80398 7.13636C5.22443 7.13636 4.71733 7.23011 4.28267 7.41761C3.85227 7.60511 3.51563 7.86293 3.27273 8.19105C3.03409 8.51918 2.91477 8.89204 2.91477 9.30966C2.91477 9.65909 2.99787 9.95952 3.16406 10.2109C3.33452 10.4581 3.55185 10.6648 3.81605 10.831C4.08026 10.9929 4.35724 11.1271 4.64702 11.2337C4.93679 11.3359 5.20312 11.419 5.44602 11.483L6.77557 11.8409C7.11648 11.9304 7.49574 12.054 7.91335 12.2116C8.33523 12.3693 8.73793 12.5845 9.12145 12.8572C9.50923 13.1257 9.82884 13.4709 10.0803 13.8928C10.3317 14.3146 10.4574 14.8324 10.4574 15.446C10.4574 16.1534 10.272 16.7926 9.90128 17.3636C9.5348 17.9347 8.99787 18.3885 8.29048 18.7251C7.58736 19.0618 6.73295 19.2301 5.72727 19.2301C4.78977 19.2301 3.97798 19.0788 3.2919 18.7763C2.61009 18.4737 2.07315 18.0518 1.68111 17.5107C1.29332 16.9695 1.07386 16.3409 1.02273 15.625H2.65909C2.7017 16.1193 2.8679 16.5284 3.15767 16.8523C3.4517 17.1719 3.82244 17.4105 4.26989 17.5682C4.72159 17.7216 5.20739 17.7983 5.72727 17.7983C6.33239 17.7983 6.87571 17.7003 7.35724 17.5043C7.83878 17.304 8.22017 17.027 8.50142 16.6733C8.78267 16.3153 8.9233 15.8977 8.9233 15.4205C8.9233 14.9858 8.80185 14.6321 8.55895 14.3594C8.31605 14.0866 7.99645 13.8651 7.60014 13.6946C7.20384 13.5241 6.77557 13.375 6.31534 13.2472L4.70455 12.7869C3.68182 12.4929 2.87216 12.0732 2.27557 11.5277C1.67898 10.9822 1.38068 10.2685 1.38068 9.38636C1.38068 8.65341 1.57884 8.0142 1.97514 7.46875C2.37571 6.91903 2.91264 6.4929 3.58594 6.19034C4.26349 5.88352 5.01989 5.73011 5.85511 5.73011C6.69886 5.73011 7.44886 5.88139 8.10511 6.18395C8.76136 6.48224 9.28125 6.89133 9.66477 7.41122C10.0526 7.93111 10.2571 8.52131 10.2784 9.18182H8.74432ZM17.127 5.29545L12.9083 20.9688H11.5276L15.7464 5.29545H17.127ZM27.8344 5.90909V19H26.2492V7.57102H26.1725L22.9765 9.69318V8.08239L26.2492 5.90909H27.8344ZM35.5092 19.179C34.5462 19.179 33.7258 18.9169 33.0483 18.3928C32.3707 17.8643 31.853 17.0994 31.495 16.098C31.1371 15.0923 30.9581 13.8778 30.9581 12.4545C30.9581 11.0398 31.1371 9.83168 31.495 8.83026C31.8572 7.82457 32.3771 7.05753 33.0547 6.52912C33.7365 5.99645 34.5547 5.73011 35.5092 5.73011C36.4638 5.73011 37.2798 5.99645 37.9574 6.52912C38.6392 7.05753 39.1591 7.82457 39.517 8.83026C39.8792 9.83168 40.0604 11.0398 40.0604 12.4545C40.0604 13.8778 39.8814 15.0923 39.5234 16.098C39.1655 17.0994 38.6477 17.8643 37.9702 18.3928C37.2926 18.9169 36.4723 19.179 35.5092 19.179ZM35.5092 17.7727C36.4638 17.7727 37.2052 17.3125 37.7337 16.392C38.2621 15.4716 38.5263 14.1591 38.5263 12.4545C38.5263 11.321 38.4048 10.3558 38.1619 9.55895C37.9233 8.76207 37.5781 8.15483 37.1264 7.73722C36.679 7.3196 36.1399 7.1108 35.5092 7.1108C34.5632 7.1108 33.8238 7.57741 33.2912 8.51065C32.7585 9.43963 32.4922 10.7543 32.4922 12.4545C32.4922 13.5881 32.6115 14.5511 32.8501 15.3438C33.0888 16.1364 33.4318 16.7393 33.8792 17.1527C34.331 17.5661 34.8743 17.7727 35.5092 17.7727ZM43.9479 17.2102L43.8456 17.9006C43.7732 18.3864 43.6624 18.9062 43.5132 19.4602C43.3683 20.0142 43.217 20.5362 43.0594 21.0263C42.9017 21.5163 42.7717 21.9063 42.6695 22.196H41.5189C41.5743 21.9233 41.6467 21.5632 41.7362 21.1158C41.8257 20.6683 41.9152 20.1676 42.0047 19.6136C42.0984 19.0639 42.1751 18.5014 42.2348 17.9261L42.3115 17.2102H43.9479ZM50.1701 19.179C49.207 19.179 48.3867 18.9169 47.7091 18.3928C47.0316 17.8643 46.5138 17.0994 46.1559 16.098C45.7979 15.0923 45.6189 13.8778 45.6189 12.4545C45.6189 11.0398 45.7979 9.83168 46.1559 8.83026C46.5181 7.82457 47.038 7.05753 47.7155 6.52912C48.3974 5.99645 49.2155 5.73011 50.1701 5.73011C51.1246 5.73011 51.9407 5.99645 52.6182 6.52912C53.3001 7.05753 53.8199 7.82457 54.1779 8.83026C54.5401 9.83168 54.7212 11.0398 54.7212 12.4545C54.7212 13.8778 54.5422 15.0923 54.1843 16.098C53.8263 17.0994 53.3086 17.8643 52.631 18.3928C51.9535 18.9169 51.1331 19.179 50.1701 19.179ZM50.1701 17.7727C51.1246 17.7727 51.8661 17.3125 52.3945 16.392C52.9229 15.4716 53.1871 14.1591 53.1871 12.4545C53.1871 11.321 53.0657 10.3558 52.8228 9.55895C52.5841 8.76207 52.239 8.15483 51.7873 7.73722C51.3398 7.3196 50.8008 7.1108 50.1701 7.1108C49.2241 7.1108 48.4847 7.57741 47.952 8.51065C47.4194 9.43963 47.153 10.7543 47.153 12.4545C47.153 13.5881 47.2724 14.5511 47.511 15.3438C47.7496 16.1364 48.0927 16.7393 48.5401 17.1527C48.9918 17.5661 49.5351 17.7727 50.1701 17.7727ZM61.0601 19.179C60.097 19.179 59.2767 18.9169 58.5991 18.3928C57.9216 17.8643 57.4038 17.0994 57.0459 16.098C56.6879 15.0923 56.5089 13.8778 56.5089 12.4545C56.5089 11.0398 56.6879 9.83168 57.0459 8.83026C57.4081 7.82457 57.928 7.05753 58.6055 6.52912C59.2874 5.99645 60.1055 5.73011 61.0601 5.73011C62.0146 5.73011 62.8307 5.99645 63.5082 6.52912C64.19 7.05753 64.7099 7.82457 65.0679 8.83026C65.4301 9.83168 65.6112 11.0398 65.6112 12.4545C65.6112 13.8778 65.4322 15.0923 65.0743 16.098C64.7163 17.0994 64.1986 17.8643 63.521 18.3928C62.8435 18.9169 62.0231 19.179 61.0601 19.179ZM61.0601 17.7727C62.0146 17.7727 62.7561 17.3125 63.2845 16.392C63.8129 15.4716 64.0771 14.1591 64.0771 12.4545C64.0771 11.321 63.9557 10.3558 63.7128 9.55895C63.4741 8.76207 63.129 8.15483 62.6773 7.73722C62.2298 7.3196 61.6908 7.1108 61.0601 7.1108C60.1141 7.1108 59.3747 7.57741 58.842 8.51065C58.3094 9.43963 58.043 10.7543 58.043 12.4545C58.043 13.5881 58.1624 14.5511 58.401 15.3438C58.6396 16.1364 58.9827 16.7393 59.4301 17.1527C59.8818 17.5661 60.4251 17.7727 61.0601 17.7727ZM71.9501 19.179C70.987 19.179 70.1667 18.9169 69.4891 18.3928C68.8116 17.8643 68.2938 17.0994 67.9359 16.098C67.5779 15.0923 67.3989 13.8778 67.3989 12.4545C67.3989 11.0398 67.5779 9.83168 67.9359 8.83026C68.2981 7.82457 68.818 7.05753 69.4955 6.52912C70.1774 5.99645 70.9955 5.73011 71.9501 5.73011C72.9046 5.73011 73.7207 5.99645 74.3982 6.52912C75.0801 7.05753 75.5999 7.82457 75.9579 8.83026C76.3201 9.83168 76.5012 11.0398 76.5012 12.4545C76.5012 13.8778 76.3222 15.0923 75.9643 16.098C75.6063 17.0994 75.0886 17.8643 74.411 18.3928C73.7335 18.9169 72.9131 19.179 71.9501 19.179ZM71.9501 17.7727C72.9046 17.7727 73.6461 17.3125 74.1745 16.392C74.7029 15.4716 74.9671 14.1591 74.9671 12.4545C74.9671 11.321 74.8457 10.3558 74.6028 9.55895C74.3641 8.76207 74.019 8.15483 73.5673 7.73722C73.1198 7.3196 72.5808 7.1108 71.9501 7.1108C71.0041 7.1108 70.2647 7.57741 69.732 8.51065C69.1994 9.43963 68.933 10.7543 68.933 12.4545C68.933 13.5881 69.0524 14.5511 69.291 15.3438C69.5296 16.1364 69.8727 16.7393 70.3201 17.1527C70.7718 17.5661 71.3151 17.7727 71.9501 17.7727Z" fill="#4F46E5"/>
<path d="M85.9233 9.86364L83.1108 20.3125H82.1903L85.0028 9.86364H85.9233ZM95.3995 12.4545C95.3483 12.0227 95.1409 11.6875 94.7773 11.4489C94.4137 11.2102 93.9677 11.0909 93.4392 11.0909C93.0529 11.0909 92.7148 11.1534 92.425 11.2784C92.1381 11.4034 91.9137 11.5753 91.7517 11.794C91.5927 12.0128 91.5131 12.2614 91.5131 12.5398C91.5131 12.7727 91.5685 12.973 91.6793 13.1406C91.7929 13.3054 91.9378 13.4432 92.114 13.554C92.2901 13.6619 92.4748 13.7514 92.6679 13.8224C92.8611 13.8906 93.0387 13.946 93.2006 13.9886L94.087 14.2273C94.3142 14.2869 94.5671 14.3693 94.8455 14.4744C95.1267 14.5795 95.3952 14.723 95.6509 14.9048C95.9094 15.0838 96.1225 15.3139 96.2901 15.5952C96.4577 15.8764 96.5415 16.2216 96.5415 16.6307C96.5415 17.1023 96.4179 17.5284 96.1708 17.9091C95.9265 18.2898 95.5685 18.5923 95.0969 18.8168C94.6282 19.0412 94.0586 19.1534 93.3881 19.1534C92.7631 19.1534 92.2219 19.0526 91.7645 18.8509C91.31 18.6491 90.952 18.3679 90.6907 18.0071C90.4321 17.6463 90.2858 17.2273 90.2517 16.75H91.3427C91.3711 17.0795 91.4819 17.3523 91.675 17.5682C91.8711 17.7812 92.1182 17.9403 92.4165 18.0455C92.7177 18.1477 93.0415 18.1989 93.3881 18.1989C93.7915 18.1989 94.1537 18.1335 94.4748 18.0028C94.7958 17.8693 95.05 17.6847 95.2375 17.4489C95.425 17.2102 95.5188 16.9318 95.5188 16.6136C95.5188 16.3239 95.4378 16.0881 95.2759 15.9062C95.114 15.7244 94.9009 15.5767 94.6367 15.4631C94.3725 15.3494 94.087 15.25 93.7802 15.1648L92.7063 14.858C92.0245 14.6619 91.4847 14.3821 91.087 14.0185C90.6892 13.6548 90.4904 13.179 90.4904 12.5909C90.4904 12.1023 90.6225 11.6761 90.8867 11.3125C91.1537 10.946 91.5117 10.6619 91.9605 10.4602C92.4123 10.2557 92.9165 10.1534 93.4733 10.1534C94.0358 10.1534 94.5358 10.2543 94.9733 10.456C95.4108 10.6548 95.7574 10.9276 96.0131 11.2741C96.2716 11.6207 96.408 12.0142 96.4222 12.4545H95.3995ZM101.228 9.86364L98.4154 20.3125H97.495L100.307 9.86364H101.228ZM105.778 19V18.233L108.659 15.0795C108.997 14.7102 109.275 14.3892 109.494 14.1165C109.713 13.8409 109.875 13.5824 109.98 13.3409C110.088 13.0966 110.142 12.8409 110.142 12.5739C110.142 12.267 110.068 12.0014 109.92 11.777C109.775 11.5526 109.576 11.3793 109.323 11.2571C109.071 11.1349 108.787 11.0739 108.471 11.0739C108.136 11.0739 107.843 11.1435 107.593 11.2827C107.346 11.419 107.154 11.6108 107.018 11.858C106.885 12.1051 106.818 12.3949 106.818 12.7273H105.812C105.812 12.2159 105.93 11.767 106.166 11.3807C106.402 10.9943 106.723 10.6932 107.129 10.4773C107.538 10.2614 107.997 10.1534 108.505 10.1534C109.017 10.1534 109.47 10.2614 109.865 10.4773C110.26 10.6932 110.569 10.9844 110.794 11.3509C111.018 11.7173 111.13 12.125 111.13 12.5739C111.13 12.8949 111.072 13.2088 110.956 13.5156C110.842 13.8196 110.643 14.1591 110.359 14.5341C110.078 14.9062 109.687 15.3608 109.187 15.8977L107.227 17.9943V18.0625H111.284V19H105.778ZM115.89 19.1193C115.248 19.1193 114.701 18.9446 114.25 18.5952C113.798 18.2429 113.453 17.733 113.214 17.0653C112.975 16.3949 112.856 15.5852 112.856 14.6364C112.856 13.6932 112.975 12.8878 113.214 12.2202C113.456 11.5497 113.802 11.0384 114.254 10.6861C114.708 10.331 115.254 10.1534 115.89 10.1534C116.527 10.1534 117.071 10.331 117.522 10.6861C117.977 11.0384 118.323 11.5497 118.562 12.2202C118.804 12.8878 118.924 13.6932 118.924 14.6364C118.924 15.5852 118.805 16.3949 118.566 17.0653C118.328 17.733 117.983 18.2429 117.531 18.5952C117.079 18.9446 116.532 19.1193 115.89 19.1193ZM115.89 18.1818C116.527 18.1818 117.021 17.875 117.373 17.2614C117.725 16.6477 117.902 15.7727 117.902 14.6364C117.902 13.8807 117.821 13.2372 117.659 12.706C117.5 12.1747 117.269 11.7699 116.968 11.4915C116.67 11.2131 116.311 11.0739 115.89 11.0739C115.26 11.0739 114.767 11.3849 114.412 12.0071C114.056 12.6264 113.879 13.5028 113.879 14.6364C113.879 15.392 113.958 16.0341 114.118 16.5625C114.277 17.0909 114.505 17.4929 114.804 17.7685C115.105 18.044 115.467 18.1818 115.89 18.1818ZM121.756 17.8068L121.688 18.267C121.64 18.5909 121.566 18.9375 121.466 19.3068C121.37 19.6761 121.269 20.0241 121.164 20.3509C121.059 20.6776 120.972 20.9375 120.904 21.1307H120.137C120.174 20.9489 120.222 20.7088 120.282 20.4105C120.341 20.1122 120.401 19.7784 120.461 19.4091C120.523 19.0426 120.574 18.6676 120.614 18.2841L120.665 17.8068H121.756ZM126.144 19.1193C125.502 19.1193 124.955 18.9446 124.504 18.5952C124.052 18.2429 123.707 17.733 123.468 17.0653C123.229 16.3949 123.11 15.5852 123.11 14.6364C123.11 13.6932 123.229 12.8878 123.468 12.2202C123.709 11.5497 124.056 11.0384 124.508 10.6861C124.962 10.331 125.508 10.1534 126.144 10.1534C126.781 10.1534 127.325 10.331 127.776 10.6861C128.231 11.0384 128.577 11.5497 128.816 12.2202C129.057 12.8878 129.178 13.6932 129.178 14.6364C129.178 15.5852 129.059 16.3949 128.82 17.0653C128.582 17.733 128.236 18.2429 127.785 18.5952C127.333 18.9446 126.786 19.1193 126.144 19.1193ZM126.144 18.1818C126.781 18.1818 127.275 17.875 127.627 17.2614C127.979 16.6477 128.156 15.7727 128.156 14.6364C128.156 13.8807 128.075 13.2372 127.913 12.706C127.754 12.1747 127.523 11.7699 127.222 11.4915C126.924 11.2131 126.565 11.0739 126.144 11.0739C125.513 11.0739 125.021 11.3849 124.665 12.0071C124.31 12.6264 124.133 13.5028 124.133 14.6364C124.133 15.392 124.212 16.0341 124.371 16.5625C124.531 17.0909 124.759 17.4929 125.057 17.7685C125.359 18.044 125.721 18.1818 126.144 18.1818ZM133.644 19.1193C133.002 19.1193 132.455 18.9446 132.004 18.5952C131.552 18.2429 131.207 17.733 130.968 17.0653C130.729 16.3949 130.61 15.5852 130.61 14.6364C130.61 13.6932 130.729 12.8878 130.968 12.2202C131.209 11.5497 131.556 11.0384 132.008 10.6861C132.462 10.331 133.008 10.1534 133.644 10.1534C134.28 10.1534 134.825 10.331 135.276 10.6861C135.731 11.0384 136.077 11.5497 136.316 12.2202C136.557 12.8878 136.678 13.6932 136.678 14.6364C136.678 15.5852 136.559 16.3949 136.32 17.0653C136.082 17.733 135.736 18.2429 135.285 18.5952C134.833 18.9446 134.286 19.1193 133.644 19.1193ZM133.644 18.1818C134.28 18.1818 134.775 17.875 135.127 17.2614C135.479 16.6477 135.655 15.7727 135.655 14.6364C135.655 13.8807 135.575 13.2372 135.413 12.706C135.254 12.1747 135.023 11.7699 134.722 11.4915C134.424 11.2131 134.065 11.0739 133.644 11.0739C133.013 11.0739 132.521 11.3849 132.165 12.0071C131.81 12.6264 131.633 13.5028 131.633 14.6364C131.633 15.392 131.712 16.0341 131.871 16.5625C132.03 17.0909 132.259 17.4929 132.557 17.7685C132.859 18.044 133.221 18.1818 133.644 18.1818ZM141.144 19.1193C140.502 19.1193 139.955 18.9446 139.504 18.5952C139.052 18.2429 138.707 17.733 138.468 17.0653C138.229 16.3949 138.11 15.5852 138.11 14.6364C138.11 13.6932 138.229 12.8878 138.468 12.2202C138.709 11.5497 139.056 11.0384 139.508 10.6861C139.962 10.331 140.508 10.1534 141.144 10.1534C141.78 10.1534 142.325 10.331 142.776 10.6861C143.231 11.0384 143.577 11.5497 143.816 12.2202C144.057 12.8878 144.178 13.6932 144.178 14.6364C144.178 15.5852 144.059 16.3949 143.82 17.0653C143.582 17.733 143.236 18.2429 142.785 18.5952C142.333 18.9446 141.786 19.1193 141.144 19.1193ZM141.144 18.1818C141.78 18.1818 142.275 17.875 142.627 17.2614C142.979 16.6477 143.155 15.7727 143.155 14.6364C143.155 13.8807 143.075 13.2372 142.913 12.706C142.754 12.1747 142.523 11.7699 142.222 11.4915C141.924 11.2131 141.565 11.0739 141.144 11.0739C140.513 11.0739 140.021 11.3849 139.665 12.0071C139.31 12.6264 139.133 13.5028 139.133 14.6364C139.133 15.392 139.212 16.0341 139.371 16.5625C139.53 17.0909 139.759 17.4929 140.057 17.7685C140.359 18.044 140.721 18.1818 141.144 18.1818Z" fill="#B8B6F7"/>
<path d="M345.236 19.1392C344.652 19.1392 344.127 19.0232 343.66 18.7912C343.192 18.5592 342.818 18.241 342.536 17.8366C342.254 17.4323 342.1 16.9716 342.074 16.4545H343.267C343.313 16.9152 343.522 17.2964 343.893 17.598C344.268 17.8963 344.715 18.0455 345.236 18.0455C345.653 18.0455 346.025 17.9477 346.349 17.7521C346.678 17.5566 346.934 17.2881 347.12 16.9467C347.309 16.602 347.403 16.2126 347.403 15.7784C347.403 15.3343 347.306 14.9382 347.11 14.5902C346.918 14.2389 346.653 13.9621 346.315 13.7599C345.977 13.5578 345.59 13.455 345.156 13.4517C344.845 13.4484 344.525 13.4964 344.197 13.5959C343.869 13.692 343.598 13.8163 343.386 13.9688L342.233 13.8295L342.849 8.81818H348.139V9.91193H343.884L343.526 12.9148H343.585C343.794 12.7491 344.056 12.6115 344.371 12.5021C344.686 12.3928 345.014 12.3381 345.355 12.3381C345.978 12.3381 346.533 12.4872 347.021 12.7855C347.511 13.0805 347.896 13.4848 348.174 13.9986C348.456 14.5123 348.597 15.099 348.597 15.7585C348.597 16.4081 348.451 16.9882 348.159 17.4986C347.871 18.0057 347.473 18.4067 346.966 18.7017C346.459 18.9934 345.882 19.1392 345.236 19.1392ZM353.893 19.1392C353.144 19.1392 352.506 18.9354 351.979 18.5277C351.452 18.1167 351.049 17.5218 350.77 16.7429C350.492 15.9607 350.353 15.0161 350.353 13.9091C350.353 12.8087 350.492 11.8691 350.77 11.0902C351.052 10.308 351.456 9.71141 351.983 9.30043C352.514 8.88613 353.15 8.67898 353.893 8.67898C354.635 8.67898 355.27 8.88613 355.797 9.30043C356.327 9.71141 356.731 10.308 357.01 11.0902C357.291 11.8691 357.432 12.8087 357.432 13.9091C357.432 15.0161 357.293 15.9607 357.015 16.7429C356.736 17.5218 356.334 18.1167 355.807 18.5277C355.28 18.9354 354.642 19.1392 353.893 19.1392ZM353.893 18.0455C354.635 18.0455 355.212 17.6875 355.623 16.9716C356.034 16.2557 356.239 15.2348 356.239 13.9091C356.239 13.0275 356.145 12.2768 355.956 11.657C355.77 11.0372 355.502 10.5649 355.15 10.2401C354.802 9.91525 354.383 9.75284 353.893 9.75284C353.157 9.75284 352.582 10.1158 352.167 10.8416C351.753 11.5642 351.546 12.5866 351.546 13.9091C351.546 14.7907 351.639 15.5398 351.824 16.1562C352.01 16.7727 352.277 17.2417 352.625 17.5632C352.976 17.8847 353.399 18.0455 353.893 18.0455ZM364.512 17.0909V16.554C364.512 16.1828 364.588 15.843 364.741 15.5348C364.896 15.2232 365.122 14.9747 365.417 14.7891C365.715 14.6001 366.076 14.5057 366.501 14.5057C366.931 14.5057 367.293 14.6001 367.584 14.7891C367.876 14.9747 368.096 15.2232 368.246 15.5348C368.395 15.843 368.469 16.1828 368.469 16.554V17.0909C368.469 17.4621 368.393 17.8035 368.241 18.1151C368.091 18.4233 367.869 18.6719 367.574 18.8608C367.283 19.0464 366.925 19.1392 366.501 19.1392C366.07 19.1392 365.707 19.0464 365.412 18.8608C365.117 18.6719 364.893 18.4233 364.741 18.1151C364.588 17.8035 364.512 17.4621 364.512 17.0909ZM365.526 16.554V17.0909C365.526 17.3991 365.599 17.6759 365.745 17.9212C365.891 18.1631 366.143 18.2841 366.501 18.2841C366.849 18.2841 367.094 18.1631 367.236 17.9212C367.382 17.6759 367.455 17.3991 367.455 17.0909V16.554C367.455 16.2457 367.385 15.9706 367.246 15.7287C367.107 15.4834 366.858 15.3608 366.501 15.3608C366.153 15.3608 365.902 15.4834 365.75 15.7287C365.601 15.9706 365.526 16.2457 365.526 16.554ZM359.441 11.2642V10.7273C359.441 10.3561 359.517 10.0163 359.67 9.7081C359.825 9.39654 360.051 9.14796 360.346 8.96236C360.644 8.77344 361.005 8.67898 361.43 8.67898C361.86 8.67898 362.222 8.77344 362.513 8.96236C362.805 9.14796 363.025 9.39654 363.175 9.7081C363.324 10.0163 363.398 10.3561 363.398 10.7273V11.2642C363.398 11.6354 363.322 11.9768 363.17 12.2884C363.02 12.5966 362.798 12.8452 362.503 13.0341C362.212 13.2197 361.854 13.3125 361.43 13.3125C360.999 13.3125 360.636 13.2197 360.341 13.0341C360.046 12.8452 359.822 12.5966 359.67 12.2884C359.517 11.9768 359.441 11.6354 359.441 11.2642ZM360.455 10.7273V11.2642C360.455 11.5724 360.528 11.8492 360.674 12.0945C360.82 12.3364 361.072 12.4574 361.43 12.4574C361.778 12.4574 362.023 12.3364 362.165 12.0945C362.311 11.8492 362.384 11.5724 362.384 11.2642V10.7273C362.384 10.419 362.314 10.1439 362.175 9.90199C362.036 9.65672 361.787 9.53409 361.43 9.53409C361.081 9.53409 360.831 9.65672 360.679 9.90199C360.53 10.1439 360.455 10.419 360.455 10.7273ZM359.819 19L366.819 8.81818H367.952L360.952 19H359.819Z" fill="#5B6776"/>
<rect y="28" width="370" height="10" rx="5" fill="#F7F8FD"/>
<rect y="28" width="225.5" height="10" rx="5" fill="#4F46E5"/>
</svg>
