<svg width="24" height="24" viewBox="0 0 24 24" fill="none" xmlns="http://www.w3.org/2000/svg">
<path fill-rule="evenodd" clip-rule="evenodd" d="M0.799999 2.39999C0.799999 1.51633 1.51634 0.799988 2.4 0.799988H8.8C9.68366 0.799988 10.4 1.51633 10.4 2.39999C10.4 3.28364 9.68366 3.99999 8.8 3.99999H6.26274L9.93137 7.66862C10.5562 8.29346 10.5562 9.30652 9.93137 9.93136C9.30653 10.5562 8.29347 10.5562 7.66863 9.93136L4 6.26273V8.79999C4 9.68364 3.28366 10.4 2.4 10.4C1.51634 10.4 0.799999 9.68364 0.799999 8.79999V2.39999ZM15.2 3.99999C14.3163 3.99999 13.6 3.28364 13.6 2.39999C13.6 1.51633 14.3163 0.799988 15.2 0.799988H21.6C22.4837 0.799988 23.2 1.51633 23.2 2.39999V8.79999C23.2 9.68364 22.4837 10.4 21.6 10.4C20.7163 10.4 20 9.68364 20 8.79999V6.26273L16.3314 9.93136C15.7065 10.5562 14.6935 10.5562 14.0686 9.93136C13.4438 9.30652 13.4438 8.29346 14.0686 7.66862L17.7373 3.99999H15.2ZM0.799999 15.2C0.799999 14.3163 1.51634 13.6 2.4 13.6C3.28366 13.6 4 14.3163 4 15.2V17.7372L7.66863 14.0686C8.29347 13.4438 9.30653 13.4438 9.93137 14.0686C10.5562 14.6935 10.5562 15.7065 9.93137 16.3314L6.26274 20H8.8C9.68366 20 10.4 20.7163 10.4 21.6C10.4 22.4836 9.68366 23.2 8.8 23.2H2.4C1.51634 23.2 0.799999 22.4836 0.799999 21.6V15.2ZM21.6 13.6C22.4837 13.6 23.2 14.3163 23.2 15.2V21.6C23.2 22.4836 22.4837 23.2 21.6 23.2H15.2C14.3163 23.2 13.6 22.4836 13.6 21.6C13.6 20.7163 14.3163 20 15.2 20H17.7373L14.0686 16.3314C13.4438 15.7065 13.4438 14.6935 14.0686 14.0686C14.6935 13.4438 15.7065 13.4438 16.3314 14.0686L20 17.7372V15.2C20 14.3163 20.7163 13.6 21.6 13.6Z" fill="#64748B"/>
</svg>
