<svg width="24" height="20" viewBox="0 0 24 20" fill="none" xmlns="http://www.w3.org/2000/svg">
<path fill-rule="evenodd" clip-rule="evenodd" d="M0.800049 1.99999C0.800049 1.11634 1.51639 0.399994 2.40005 0.399994H21.6C22.4837 0.399994 23.2001 1.11634 23.2001 1.99999C23.2001 2.88365 22.4837 3.59999 21.6 3.59999H2.40005C1.51639 3.59999 0.800049 2.88365 0.800049 1.99999Z" fill="#64748B"/>
<path fill-rule="evenodd" clip-rule="evenodd" d="M0.800049 9.99999C0.800049 9.11634 1.51639 8.39999 2.40005 8.39999H21.6C22.4837 8.39999 23.2001 9.11634 23.2001 9.99999C23.2001 10.8836 22.4837 11.6 21.6 11.6H2.40005C1.51639 11.6 0.800049 10.8836 0.800049 9.99999Z" fill="#64748B"/>
<path fill-rule="evenodd" clip-rule="evenodd" d="M10.4 18C10.4 17.1163 11.1164 16.4 12 16.4H21.6C22.4837 16.4 23.2001 17.1163 23.2001 18C23.2001 18.8836 22.4837 19.6 21.6 19.6H12C11.1164 19.6 10.4 18.8836 10.4 18Z" fill="#64748B"/>
</svg>
