<svg width="40" height="40" viewBox="0 0 40 40" fill="none" xmlns="http://www.w3.org/2000/svg">
<g clip-path="url(#clip0_95_754)">
<path d="M20.4373 39.963C20.7534 39.8536 20.9601 39.6226 25.337 34.9418C27.6835 32.4372 29.8112 30.1515 30.0786 29.8719C30.4555 29.4828 30.565 29.2518 30.6136 28.8141C30.6744 28.3035 30.6501 28.2305 30.2489 27.8293L29.8233 27.4038L28.5954 27.4038L27.3674 27.4038L27.3674 23.9874C27.3674 21.8719 27.3188 20.4858 27.2458 20.34C27.0999 20.0725 26.4191 20.0117 26.1759 20.2548C26.0665 20.3643 26.03 21.4463 26.03 24.3764C26.03 27.9144 26.0543 28.3643 26.2245 28.5102C26.3583 28.6196 26.9054 28.7047 27.8537 28.7412L29.2762 28.802L26.5893 31.6713C25.1182 33.2518 23.027 35.4767 21.9571 36.6317L20.0118 38.7229L19.416 38.0785C19.0756 37.726 18.4799 37.0816 18.0786 36.6439C17.6653 36.2062 16.6197 35.0877 15.7565 34.1515C14.0422 32.3035 12.9479 31.1363 11.5619 29.6895L10.6744 28.7412L12.0604 28.7412C14.1759 28.7412 13.9935 29.1424 13.9935 24.4737C13.9935 22.0178 13.9449 20.498 13.872 20.3399C13.7017 20.036 13.0452 20.0238 12.8264 20.3278C12.7048 20.4858 12.6683 21.3004 12.6562 23.9752L12.6562 27.4038L11.489 27.4038C9.87196 27.4038 9.37348 27.732 9.37348 28.802C9.37348 29.3004 9.22758 29.1302 15.0878 35.4159C17.2641 37.7503 19.2093 39.7442 19.4282 39.8536C19.8172 40.0482 20.109 40.0846 20.4373 39.963Z" fill="#64748B"/>
<path d="M23.1607 26.4797C23.3309 26.3217 23.3552 25.8718 23.3552 23.4402C23.3552 21.7016 23.3066 20.4858 23.2336 20.3399C23.1485 20.1819 22.9783 20.1089 22.6865 20.1089C22.3947 20.1089 22.2245 20.1819 22.1394 20.3399C22.0665 20.4858 22.0178 21.7016 22.0178 23.4402C22.0178 26.5284 22.0422 26.6743 22.6865 26.6743C22.8446 26.6743 23.0634 26.5892 23.1607 26.4797Z" fill="#64748B"/>
<path d="M17.8112 26.4797C17.9814 26.3217 18.0057 25.8718 18.0057 23.4402C18.0057 21.7016 17.9571 20.4858 17.8842 20.3399C17.7991 20.1819 17.6288 20.1089 17.337 20.1089C17.0453 20.1089 16.875 20.1819 16.7899 20.3399C16.717 20.4858 16.6684 21.7016 16.6684 23.4402C16.6684 26.5284 16.6927 26.6743 17.337 26.6743C17.4951 26.6743 17.7139 26.5892 17.8112 26.4797Z" fill="#64748B"/>
<path d="M6.01824 0.197346C5.42249 0.404032 4.92401 0.951145 4.7538 1.55905C4.55927 2.22774 4.57143 16.7323 4.7538 17.2916C4.93617 17.8144 5.42249 18.3615 5.92097 18.5682C6.24924 18.7141 8.64438 18.7384 19.9878 18.7384C29.3739 18.7384 33.7751 18.7019 34.0061 18.6046C34.4924 18.4223 34.8936 18.0211 35.1489 17.4618C35.3556 16.9998 35.3799 16.5135 35.3799 9.49826C35.3799 4.44051 35.3313 1.863 35.2462 1.53473C35.076 0.92683 34.4681 0.318926 33.8602 0.148712C33.5197 0.0514488 29.3374 0.0149746 19.9392 0.0149746C8.68085 0.027132 6.43161 0.0514488 6.01824 0.197346ZM15.1368 2.0089L14.4073 2.66543L12.3647 2.71406C10.5046 2.75054 10.2979 2.77485 10.1398 2.98154C10.0426 3.11528 9.9696 3.38276 9.9696 3.56513C9.9696 4.25814 9.22796 5.16999 8.55927 5.30373C7.19757 5.58337 7.29483 5.26726 7.29483 9.35236C7.29483 13.1943 7.33131 13.3888 8 13.3888C8.51064 13.401 9.30091 13.8022 9.59271 14.2156C9.7386 14.4223 9.89666 14.8357 9.95745 15.1396C10.1277 16.0758 10.1033 16.0636 12.3891 16.0636L14.4073 16.0758L15.1125 16.7323L15.8176 17.401H11.1246C6.60182 17.401 6.43161 17.3888 6.20061 17.1578C5.95745 16.9147 5.95745 16.7566 5.95745 9.43747V1.94811L6.2614 1.65631L6.55319 1.35236H11.2097H15.8663L15.1368 2.0089ZM21.7994 1.74142C23.7568 2.37364 25.459 4.22166 26.2128 6.5317C26.541 7.54081 26.5653 7.7475 26.5653 9.43747C26.5532 11.091 26.5289 11.3584 26.2249 12.2338C25.7751 13.5712 25.1307 14.6411 24.1945 15.5773C22.9179 16.8539 21.2766 17.4983 19.6353 17.3645C16.7295 17.1335 14.4559 14.9451 13.6049 11.5651C13.228 10.0575 13.3131 7.92987 13.8237 6.43443C15.1246 2.62896 18.4924 0.647194 21.7994 1.74142ZM33.7386 1.65631L34.0425 1.94811V9.43747C34.0425 16.7566 34.0425 16.9147 33.7994 17.1578C33.5684 17.3888 33.3982 17.401 28.8754 17.401H24.1824L24.8875 16.7323L25.5927 16.0758L27.6109 16.0636C29.8967 16.0636 29.8723 16.0758 30.0425 15.1396C30.1033 14.8357 30.2614 14.4223 30.4073 14.2156C30.6991 13.8022 31.4894 13.401 32 13.3888C32.6687 13.3888 32.7052 13.1943 32.7052 9.35236C32.7052 5.57121 32.7052 5.55905 32.0243 5.42531C31.8663 5.38884 31.5988 5.34021 31.4407 5.30373C30.772 5.16999 30.0304 4.25814 30.0304 3.56513C30.0304 3.38276 29.9574 3.11528 29.8602 2.98154C29.7021 2.77485 29.4954 2.75054 27.6353 2.71406L25.5927 2.66543L24.8632 2.0089L24.1337 1.35236H28.7903H33.4468L33.7386 1.65631ZM13.3374 4.17303C12.3769 6.31285 12.0365 7.67455 12.0365 9.44963C12.0365 10.9086 12.304 12.2095 12.8389 13.4496C13.0821 13.9846 13.3009 14.4952 13.3374 14.5682C13.386 14.6898 13.1429 14.7262 12.3526 14.7262H11.3191L11.0517 14.1183C10.7356 13.3767 9.79939 12.4891 9.1307 12.2825L8.63222 12.1366L8.65654 9.401L8.69301 6.66543L9.19149 6.49522C10.1033 6.19127 10.845 5.36452 11.2219 4.23382C11.2827 4.06361 11.4529 4.02713 12.3526 4.02713C13.1429 4.02713 13.386 4.06361 13.3374 4.17303ZM28.8997 4.5864C29.2036 5.4861 30.1277 6.32501 31.1611 6.62896C31.3435 6.68975 31.3678 6.93291 31.3678 9.41316V12.1366L30.8693 12.2825C30.2006 12.4891 29.2644 13.3767 28.9483 14.1183L28.6808 14.7262H27.6596C27.0881 14.7262 26.6261 14.7019 26.6261 14.6654C26.6261 14.629 26.7356 14.3858 26.8693 14.1183C27.5866 12.6958 27.9635 11.1396 27.9635 9.47395C27.9635 7.67455 27.6353 6.34932 26.6626 4.17303C26.614 4.05145 26.8328 4.02713 27.6596 4.05145L28.7295 4.08792L28.8997 4.5864Z" fill="#64748B"/>
<path d="M19.8176 2.77484C19.5015 2.88426 19.3313 3.20037 19.3313 3.67454C19.3313 4.10007 19.3069 4.12439 18.8814 4.20949C17.2401 4.50129 16.0486 5.71709 16.0486 7.06664C16.0486 7.84475 16.3647 8.48913 17.0334 9.06056C17.544 9.49825 18.6382 9.98457 19.0881 9.98457C19.3191 9.98457 19.3313 10.0818 19.3313 11.6259C19.3313 13.4739 19.3434 13.4618 18.4194 13.0362C17.7993 12.7566 17.544 12.4527 17.3495 11.8083C17.1671 11.1639 16.9118 10.9815 16.4498 11.1517C16.1337 11.2612 16.1094 11.3098 16.1094 11.942C16.1094 12.4891 16.1823 12.7201 16.462 13.1335C16.9118 13.7779 17.6656 14.2764 18.6018 14.5317C19.3313 14.7384 19.3313 14.7384 19.3313 15.2004C19.3313 15.4922 19.4164 15.7353 19.5501 15.8569C20.0607 16.3189 20.6686 15.942 20.6686 15.1761C20.6686 14.7384 20.6808 14.7384 21.3981 14.5317C22.3343 14.2764 23.0881 13.7779 23.5379 13.1214C23.8419 12.6837 23.8905 12.5135 23.8905 11.7475C23.8905 10.9937 23.8419 10.8113 23.5501 10.3615C23.1367 9.74141 22.2978 9.18214 21.3738 8.92682L20.6686 8.73229V7.10311C20.6686 5.88731 20.7051 5.48609 20.8267 5.48609C20.8996 5.48609 21.2522 5.61983 21.5805 5.77788C22.2249 6.06968 22.5167 6.39795 22.6626 7.00585C22.7841 7.50433 22.9544 7.67454 23.3313 7.67454C23.7811 7.67454 23.9513 7.46785 23.9513 6.92074C23.9513 5.71709 22.6747 4.48913 21.1306 4.20949C20.693 4.12439 20.6686 4.10007 20.6686 3.65022C20.6686 3.33411 20.5835 3.09095 20.4255 2.9329C20.1702 2.67758 20.1215 2.66542 19.8176 2.77484ZM19.3313 7.06664C19.3313 8.24597 19.2948 8.64719 19.1854 8.64719C18.8693 8.64719 17.775 8.05144 17.5805 7.78396C17.082 7.06664 17.4711 6.19126 18.5045 5.72925C19.3556 5.34019 19.3313 5.31588 19.3313 7.06664ZM22.1398 10.8356C22.5167 11.1882 22.6139 11.3706 22.6139 11.711C22.6139 12.2581 22.237 12.7445 21.5927 13.0362C20.6565 13.4618 20.6686 13.4739 20.6686 11.6989V10.1305L21.1671 10.2642C21.4589 10.3372 21.8723 10.5803 22.1398 10.8356Z" fill="#64748B"/>
</g>
<defs>
<clipPath id="clip0_95_754">
<rect width="40" height="40" fill="white"/>
</clipPath>
</defs>
</svg>
