<svg width="370" height="38" viewBox="0 0 370 38" fill="none" xmlns="http://www.w3.org/2000/svg">
<path d="M8.74432 9.18182C8.66761 8.53409 8.35653 8.03125 7.81108 7.6733C7.26563 7.31534 6.59659 7.13636 5.80398 7.13636C5.22443 7.13636 4.71733 7.23011 4.28267 7.41761C3.85227 7.60511 3.51563 7.86293 3.27273 8.19105C3.03409 8.51918 2.91477 8.89204 2.91477 9.30966C2.91477 9.65909 2.99787 9.95952 3.16406 10.2109C3.33452 10.4581 3.55185 10.6648 3.81605 10.831C4.08026 10.9929 4.35724 11.1271 4.64702 11.2337C4.93679 11.3359 5.20312 11.419 5.44602 11.483L6.77557 11.8409C7.11648 11.9304 7.49574 12.054 7.91335 12.2116C8.33523 12.3693 8.73793 12.5845 9.12145 12.8572C9.50923 13.1257 9.82884 13.4709 10.0803 13.8928C10.3317 14.3146 10.4574 14.8324 10.4574 15.446C10.4574 16.1534 10.272 16.7926 9.90128 17.3636C9.5348 17.9347 8.99787 18.3885 8.29048 18.7251C7.58736 19.0618 6.73295 19.2301 5.72727 19.2301C4.78977 19.2301 3.97798 19.0788 3.2919 18.7763C2.61009 18.4737 2.07315 18.0518 1.68111 17.5107C1.29332 16.9695 1.07386 16.3409 1.02273 15.625H2.65909C2.7017 16.1193 2.8679 16.5284 3.15767 16.8523C3.4517 17.1719 3.82244 17.4105 4.26989 17.5682C4.72159 17.7216 5.20739 17.7983 5.72727 17.7983C6.33239 17.7983 6.87571 17.7003 7.35724 17.5043C7.83878 17.304 8.22017 17.027 8.50142 16.6733C8.78267 16.3153 8.9233 15.8977 8.9233 15.4205C8.9233 14.9858 8.80185 14.6321 8.55895 14.3594C8.31605 14.0866 7.99645 13.8651 7.60014 13.6946C7.20384 13.5241 6.77557 13.375 6.31534 13.2472L4.70455 12.7869C3.68182 12.4929 2.87216 12.0732 2.27557 11.5277C1.67898 10.9822 1.38068 10.2685 1.38068 9.38636C1.38068 8.65341 1.57884 8.0142 1.97514 7.46875C2.37571 6.91903 2.91264 6.4929 3.58594 6.19034C4.26349 5.88352 5.01989 5.73011 5.85511 5.73011C6.69886 5.73011 7.44886 5.88139 8.10511 6.18395C8.76136 6.48224 9.28125 6.89133 9.66477 7.41122C10.0526 7.93111 10.2571 8.52131 10.2784 9.18182H8.74432ZM17.127 5.29545L12.9083 20.9688H11.5276L15.7464 5.29545H17.127ZM27.6554 19.179C26.8117 19.179 26.0596 19.0341 25.399 18.7443C24.7428 18.4545 24.2208 18.0518 23.833 17.5362C23.4495 17.0163 23.2407 16.4134 23.2066 15.7273H24.8174C24.8515 16.1491 24.9963 16.5135 25.252 16.8203C25.5077 17.1229 25.8422 17.3572 26.2556 17.5234C26.6689 17.6896 27.127 17.7727 27.6299 17.7727C28.1924 17.7727 28.691 17.6747 29.1256 17.4787C29.5603 17.2827 29.9012 17.0099 30.1483 16.6605C30.3955 16.3111 30.5191 15.9062 30.5191 15.446C30.5191 14.9645 30.3998 14.5405 30.1611 14.174C29.9225 13.8033 29.5731 13.5135 29.1128 13.3047C28.6526 13.0959 28.0901 12.9915 27.4253 12.9915H26.377V11.5852H27.4253C27.9452 11.5852 28.4012 11.4915 28.7932 11.304C29.1895 11.1165 29.4985 10.8523 29.7201 10.5114C29.9459 10.1705 30.0588 9.76989 30.0588 9.30966C30.0588 8.86648 29.9608 8.48082 29.7648 8.1527C29.5688 7.82457 29.2918 7.56889 28.9338 7.38565C28.5802 7.20241 28.1625 7.1108 27.681 7.1108C27.2293 7.1108 26.8032 7.19389 26.4026 7.36009C26.0063 7.52202 25.6824 7.75852 25.431 8.0696C25.1796 8.37642 25.0432 8.74716 25.0219 9.18182H23.4878C23.5134 8.49574 23.7201 7.89489 24.1079 7.37926C24.4956 6.85937 25.0027 6.45454 25.6292 6.16477C26.2598 5.875 26.9523 5.73011 27.7066 5.73011C28.5162 5.73011 29.2108 5.89418 29.7904 6.2223C30.3699 6.54616 30.8152 6.97443 31.1263 7.5071C31.4374 8.03977 31.5929 8.61506 31.5929 9.23295C31.5929 9.97017 31.399 10.5987 31.0113 11.1186C30.6277 11.6385 30.1057 11.9986 29.4452 12.1989V12.3011C30.2719 12.4375 30.9175 12.7891 31.382 13.3558C31.8465 13.9183 32.0787 14.6151 32.0787 15.446C32.0787 16.1577 31.8848 16.7969 31.4971 17.3636C31.1135 17.9261 30.5894 18.3693 29.9246 18.6932C29.2598 19.017 28.5035 19.179 27.6554 19.179ZM38.603 19.179C37.6399 19.179 36.8196 18.9169 36.142 18.3928C35.4645 17.8643 34.9467 17.0994 34.5888 16.098C34.2308 15.0923 34.0518 13.8778 34.0518 12.4545C34.0518 11.0398 34.2308 9.83168 34.5888 8.83026C34.951 7.82457 35.4709 7.05753 36.1484 6.52912C36.8302 5.99645 37.6484 5.73011 38.603 5.73011C39.5575 5.73011 40.3736 5.99645 41.0511 6.52912C41.7329 7.05753 42.2528 7.82457 42.6108 8.83026C42.973 9.83168 43.1541 11.0398 43.1541 12.4545C43.1541 13.8778 42.9751 15.0923 42.6172 16.098C42.2592 17.0994 41.7415 17.8643 41.0639 18.3928C40.3864 18.9169 39.566 19.179 38.603 19.179ZM38.603 17.7727C39.5575 17.7727 40.299 17.3125 40.8274 16.392C41.3558 15.4716 41.62 14.1591 41.62 12.4545C41.62 11.321 41.4986 10.3558 41.2557 9.55895C41.017 8.76207 40.6719 8.15483 40.2202 7.73722C39.7727 7.3196 39.2337 7.1108 38.603 7.1108C37.6569 7.1108 36.9176 7.57741 36.3849 8.51065C35.8523 9.43963 35.5859 10.7543 35.5859 12.4545C35.5859 13.5881 35.7052 14.5511 35.9439 15.3438C36.1825 16.1364 36.5256 16.7393 36.973 17.1527C37.4247 17.5661 37.968 17.7727 38.603 17.7727ZM49.493 19.179C48.5299 19.179 47.7096 18.9169 47.032 18.3928C46.3545 17.8643 45.8367 17.0994 45.4788 16.098C45.1208 15.0923 44.9418 13.8778 44.9418 12.4545C44.9418 11.0398 45.1208 9.83168 45.4788 8.83026C45.841 7.82457 46.3609 7.05753 47.0384 6.52912C47.7202 5.99645 48.5384 5.73011 49.493 5.73011C50.4475 5.73011 51.2636 5.99645 51.9411 6.52912C52.6229 7.05753 53.1428 7.82457 53.5008 8.83026C53.863 9.83168 54.0441 11.0398 54.0441 12.4545C54.0441 13.8778 53.8651 15.0923 53.5072 16.098C53.1492 17.0994 52.6315 17.8643 51.9539 18.3928C51.2764 18.9169 50.456 19.179 49.493 19.179ZM49.493 17.7727C50.4475 17.7727 51.189 17.3125 51.7174 16.392C52.2458 15.4716 52.51 14.1591 52.51 12.4545C52.51 11.321 52.3886 10.3558 52.1457 9.55895C51.907 8.76207 51.5619 8.15483 51.1102 7.73722C50.6627 7.3196 50.1237 7.1108 49.493 7.1108C48.5469 7.1108 47.8076 7.57741 47.2749 8.51065C46.7423 9.43963 46.4759 10.7543 46.4759 12.4545C46.4759 13.5881 46.5952 14.5511 46.8339 15.3438C47.0725 16.1364 47.4156 16.7393 47.863 17.1527C48.3147 17.5661 48.858 17.7727 49.493 17.7727Z" fill="#4F46E5"/>
<path d="M63.4662 9.86364L60.6537 20.3125H59.7332L62.5457 9.86364H63.4662ZM72.9424 12.4545C72.8912 12.0227 72.6838 11.6875 72.3202 11.4489C71.9566 11.2102 71.5105 11.0909 70.9821 11.0909C70.5958 11.0909 70.2577 11.1534 69.9679 11.2784C69.681 11.4034 69.4566 11.5753 69.2946 11.794C69.1355 12.0128 69.056 12.2614 69.056 12.5398C69.056 12.7727 69.1114 12.973 69.2222 13.1406C69.3358 13.3054 69.4807 13.4432 69.6568 13.554C69.833 13.6619 70.0176 13.7514 70.2108 13.8224C70.404 13.8906 70.5816 13.946 70.7435 13.9886L71.6299 14.2273C71.8571 14.2869 72.11 14.3693 72.3884 14.4744C72.6696 14.5795 72.9381 14.723 73.1938 14.9048C73.4523 15.0838 73.6654 15.3139 73.833 15.5952C74.0006 15.8764 74.0844 16.2216 74.0844 16.6307C74.0844 17.1023 73.9608 17.5284 73.7137 17.9091C73.4694 18.2898 73.1114 18.5923 72.6398 18.8168C72.1711 19.0412 71.6015 19.1534 70.931 19.1534C70.306 19.1534 69.7648 19.0526 69.3074 18.8509C68.8529 18.6491 68.4949 18.3679 68.2336 18.0071C67.975 17.6463 67.8287 17.2273 67.7946 16.75H68.8855C68.914 17.0795 69.0247 17.3523 69.2179 17.5682C69.414 17.7812 69.6611 17.9403 69.9594 18.0455C70.2605 18.1477 70.5844 18.1989 70.931 18.1989C71.3344 18.1989 71.6966 18.1335 72.0176 18.0028C72.3387 17.8693 72.5929 17.6847 72.7804 17.4489C72.9679 17.2102 73.0617 16.9318 73.0617 16.6136C73.0617 16.3239 72.9807 16.0881 72.8188 15.9062C72.6569 15.7244 72.4438 15.5767 72.1796 15.4631C71.9154 15.3494 71.6299 15.25 71.323 15.1648L70.2492 14.858C69.5674 14.6619 69.0276 14.3821 68.6299 14.0185C68.2321 13.6548 68.0333 13.179 68.0333 12.5909C68.0333 12.1023 68.1654 11.6761 68.4296 11.3125C68.6966 10.946 69.0546 10.6619 69.5034 10.4602C69.9551 10.2557 70.4594 10.1534 71.0162 10.1534C71.5787 10.1534 72.0787 10.2543 72.5162 10.456C72.9537 10.6548 73.3003 10.9276 73.556 11.2741C73.8145 11.6207 73.9509 12.0142 73.9651 12.4545H72.9424ZM78.7708 9.86364L75.9583 20.3125H75.0379L77.8504 9.86364H78.7708ZM86.3891 10.2727V19H85.3323V11.3807H85.2811L83.1505 12.7955V11.7216L85.3323 10.2727H86.3891ZM91.7456 19.1193C91.1036 19.1193 90.5567 18.9446 90.105 18.5952C89.6533 18.2429 89.3081 17.733 89.0695 17.0653C88.8309 16.3949 88.7115 15.5852 88.7115 14.6364C88.7115 13.6932 88.8309 12.8878 89.0695 12.2202C89.311 11.5497 89.6576 11.0384 90.1093 10.6861C90.5638 10.331 91.1093 10.1534 91.7456 10.1534C92.382 10.1534 92.926 10.331 93.3777 10.6861C93.8323 11.0384 94.1789 11.5497 94.4175 12.2202C94.659 12.8878 94.7797 13.6932 94.7797 14.6364C94.7797 15.5852 94.6604 16.3949 94.4218 17.0653C94.1831 17.733 93.838 18.2429 93.3863 18.5952C92.9345 18.9446 92.3877 19.1193 91.7456 19.1193ZM91.7456 18.1818C92.382 18.1818 92.8763 17.875 93.2286 17.2614C93.5809 16.6477 93.757 15.7727 93.757 14.6364C93.757 13.8807 93.676 13.2372 93.5141 12.706C93.355 12.1747 93.1249 11.7699 92.8238 11.4915C92.5255 11.2131 92.1661 11.0739 91.7456 11.0739C91.1149 11.0739 90.622 11.3849 90.2669 12.0071C89.9118 12.6264 89.7343 13.5028 89.7343 14.6364C89.7343 15.392 89.8138 16.0341 89.9729 16.5625C90.132 17.0909 90.3607 17.4929 90.659 17.7685C90.9601 18.044 91.3223 18.1818 91.7456 18.1818ZM99.2456 19.1193C98.6036 19.1193 98.0567 18.9446 97.605 18.5952C97.1533 18.2429 96.8081 17.733 96.5695 17.0653C96.3309 16.3949 96.2115 15.5852 96.2115 14.6364C96.2115 13.6932 96.3309 12.8878 96.5695 12.2202C96.811 11.5497 97.1576 11.0384 97.6093 10.6861C98.0638 10.331 98.6093 10.1534 99.2456 10.1534C99.882 10.1534 100.426 10.331 100.878 10.6861C101.332 11.0384 101.679 11.5497 101.918 12.2202C102.159 12.8878 102.28 13.6932 102.28 14.6364C102.28 15.5852 102.16 16.3949 101.922 17.0653C101.683 17.733 101.338 18.2429 100.886 18.5952C100.435 18.9446 99.8877 19.1193 99.2456 19.1193ZM99.2456 18.1818C99.882 18.1818 100.376 17.875 100.729 17.2614C101.081 16.6477 101.257 15.7727 101.257 14.6364C101.257 13.8807 101.176 13.2372 101.014 12.706C100.855 12.1747 100.625 11.7699 100.324 11.4915C100.025 11.2131 99.6661 11.0739 99.2456 11.0739C98.6149 11.0739 98.122 11.3849 97.7669 12.0071C97.4118 12.6264 97.2343 13.5028 97.2343 14.6364C97.2343 15.392 97.3138 16.0341 97.4729 16.5625C97.632 17.0909 97.8607 17.4929 98.159 17.7685C98.4601 18.044 98.8223 18.1818 99.2456 18.1818ZM106.746 19.1193C106.104 19.1193 105.557 18.9446 105.105 18.5952C104.653 18.2429 104.308 17.733 104.069 17.0653C103.831 16.3949 103.712 15.5852 103.712 14.6364C103.712 13.6932 103.831 12.8878 104.069 12.2202C104.311 11.5497 104.658 11.0384 105.109 10.6861C105.564 10.331 106.109 10.1534 106.746 10.1534C107.382 10.1534 107.926 10.331 108.378 10.6861C108.832 11.0384 109.179 11.5497 109.418 12.2202C109.659 12.8878 109.78 13.6932 109.78 14.6364C109.78 15.5852 109.66 16.3949 109.422 17.0653C109.183 17.733 108.838 18.2429 108.386 18.5952C107.935 18.9446 107.388 19.1193 106.746 19.1193ZM106.746 18.1818C107.382 18.1818 107.876 17.875 108.229 17.2614C108.581 16.6477 108.757 15.7727 108.757 14.6364C108.757 13.8807 108.676 13.2372 108.514 12.706C108.355 12.1747 108.125 11.7699 107.824 11.4915C107.525 11.2131 107.166 11.0739 106.746 11.0739C106.115 11.0739 105.622 11.3849 105.267 12.0071C104.912 12.6264 104.734 13.5028 104.734 14.6364C104.734 15.392 104.814 16.0341 104.973 16.5625C105.132 17.0909 105.361 17.4929 105.659 17.7685C105.96 18.044 106.322 18.1818 106.746 18.1818Z" fill="#B8B6F7"/>
<path d="M344.494 19.1392C343.838 19.1392 343.253 19.0265 342.739 18.8011C342.229 18.5758 341.823 18.2625 341.521 17.8615C341.223 17.4571 341.061 16.9882 341.034 16.4545H342.287C342.313 16.7827 342.426 17.0661 342.625 17.3047C342.824 17.54 343.084 17.7223 343.406 17.8516C343.727 17.9808 344.083 18.0455 344.474 18.0455C344.912 18.0455 345.3 17.9692 345.638 17.8168C345.976 17.6643 346.241 17.4522 346.433 17.1804C346.625 16.9086 346.722 16.5938 346.722 16.2358C346.722 15.8613 346.629 15.5315 346.443 15.2464C346.258 14.9581 345.986 14.7327 345.628 14.5703C345.27 14.4079 344.832 14.3267 344.315 14.3267H343.5V13.233H344.315C344.72 13.233 345.074 13.16 345.379 13.0142C345.688 12.8684 345.928 12.6629 346.1 12.3977C346.276 12.1326 346.364 11.821 346.364 11.4631C346.364 11.1184 346.287 10.8184 346.135 10.5632C345.982 10.308 345.767 10.1091 345.489 9.96662C345.214 9.8241 344.889 9.75284 344.514 9.75284C344.163 9.75284 343.831 9.81747 343.52 9.94673C343.212 10.0727 342.96 10.2566 342.764 10.4986C342.569 10.7372 342.463 11.0256 342.446 11.3636H341.253C341.273 10.83 341.433 10.3627 341.735 9.96165C342.037 9.55729 342.431 9.24242 342.918 9.01705C343.409 8.79167 343.947 8.67898 344.534 8.67898C345.164 8.67898 345.704 8.80658 346.155 9.06179C346.606 9.31368 346.952 9.64678 347.194 10.0611C347.436 10.4754 347.557 10.9228 347.557 11.4034C347.557 11.9768 347.406 12.4657 347.104 12.87C346.806 13.2744 346.4 13.5545 345.886 13.7102V13.7898C346.529 13.8958 347.031 14.1693 347.393 14.6101C347.754 15.0476 347.935 15.5895 347.935 16.2358C347.935 16.7893 347.784 17.2865 347.482 17.7273C347.184 18.1648 346.776 18.5095 346.259 18.7614C345.742 19.0133 345.154 19.1392 344.494 19.1392ZM353.289 19.1392C352.54 19.1392 351.902 18.9354 351.375 18.5277C350.848 18.1167 350.445 17.5218 350.167 16.7429C349.888 15.9607 349.749 15.0161 349.749 13.9091C349.749 12.8087 349.888 11.8691 350.167 11.0902C350.449 10.308 350.853 9.71141 351.38 9.30043C351.91 8.88613 352.547 8.67898 353.289 8.67898C354.031 8.67898 354.666 8.88613 355.193 9.30043C355.723 9.71141 356.128 10.308 356.406 11.0902C356.688 11.8691 356.829 12.8087 356.829 13.9091C356.829 15.0161 356.69 15.9607 356.411 16.7429C356.133 17.5218 355.73 18.1167 355.203 18.5277C354.676 18.9354 354.038 19.1392 353.289 19.1392ZM353.289 18.0455C354.031 18.0455 354.608 17.6875 355.019 16.9716C355.43 16.2557 355.636 15.2348 355.636 13.9091C355.636 13.0275 355.541 12.2768 355.352 11.657C355.167 11.0372 354.898 10.5649 354.547 10.2401C354.199 9.91525 353.78 9.75284 353.289 9.75284C352.553 9.75284 351.978 10.1158 351.564 10.8416C351.15 11.5642 350.942 12.5866 350.942 13.9091C350.942 14.7907 351.035 15.5398 351.221 16.1562C351.406 16.7727 351.673 17.2417 352.021 17.5632C352.373 17.8847 352.795 18.0455 353.289 18.0455ZM363.908 17.0909V16.554C363.908 16.1828 363.985 15.843 364.137 15.5348C364.293 15.2232 364.518 14.9747 364.813 14.7891C365.112 14.6001 365.473 14.5057 365.897 14.5057C366.328 14.5057 366.689 14.6001 366.981 14.7891C367.272 14.9747 367.493 15.2232 367.642 15.5348C367.791 15.843 367.866 16.1828 367.866 16.554V17.0909C367.866 17.4621 367.79 17.8035 367.637 18.1151C367.488 18.4233 367.266 18.6719 366.971 18.8608C366.679 19.0464 366.321 19.1392 365.897 19.1392C365.466 19.1392 365.103 19.0464 364.808 18.8608C364.513 18.6719 364.29 18.4233 364.137 18.1151C363.985 17.8035 363.908 17.4621 363.908 17.0909ZM364.923 16.554V17.0909C364.923 17.3991 364.996 17.6759 365.141 17.9212C365.287 18.1631 365.539 18.2841 365.897 18.2841C366.245 18.2841 366.49 18.1631 366.633 17.9212C366.779 17.6759 366.852 17.3991 366.852 17.0909V16.554C366.852 16.2457 366.782 15.9706 366.643 15.7287C366.504 15.4834 366.255 15.3608 365.897 15.3608C365.549 15.3608 365.299 15.4834 365.146 15.7287C364.997 15.9706 364.923 16.2457 364.923 16.554ZM358.837 11.2642V10.7273C358.837 10.3561 358.914 10.0163 359.066 9.7081C359.222 9.39654 359.447 9.14796 359.742 8.96236C360.04 8.77344 360.402 8.67898 360.826 8.67898C361.257 8.67898 361.618 8.77344 361.91 8.96236C362.201 9.14796 362.422 9.39654 362.571 9.7081C362.72 10.0163 362.795 10.3561 362.795 10.7273V11.2642C362.795 11.6354 362.719 11.9768 362.566 12.2884C362.417 12.5966 362.195 12.8452 361.9 13.0341C361.608 13.2197 361.25 13.3125 360.826 13.3125C360.395 13.3125 360.032 13.2197 359.737 13.0341C359.442 12.8452 359.219 12.5966 359.066 12.2884C358.914 11.9768 358.837 11.6354 358.837 11.2642ZM359.852 10.7273V11.2642C359.852 11.5724 359.924 11.8492 360.07 12.0945C360.216 12.3364 360.468 12.4574 360.826 12.4574C361.174 12.4574 361.419 12.3364 361.562 12.0945C361.708 11.8492 361.781 11.5724 361.781 11.2642V10.7273C361.781 10.419 361.711 10.1439 361.572 9.90199C361.433 9.65672 361.184 9.53409 360.826 9.53409C360.478 9.53409 360.228 9.65672 360.075 9.90199C359.926 10.1439 359.852 10.419 359.852 10.7273ZM359.215 19L366.215 8.81818H367.349L360.349 19H359.215Z" fill="#5B6776"/>
<rect y="28" width="370" height="10" rx="5" fill="#F7F8FD"/>
<rect y="28" width="189.4" height="10" rx="5" fill="#4F46E5"/>
</svg>
