<svg width="370" height="38" viewBox="0 0 370 38" fill="none" xmlns="http://www.w3.org/2000/svg">
<path d="M8.74432 9.18182C8.66761 8.53409 8.35653 8.03125 7.81108 7.6733C7.26563 7.31534 6.59659 7.13636 5.80398 7.13636C5.22443 7.13636 4.71733 7.23011 4.28267 7.41761C3.85227 7.60511 3.51563 7.86293 3.27273 8.19105C3.03409 8.51918 2.91477 8.89204 2.91477 9.30966C2.91477 9.65909 2.99787 9.95952 3.16406 10.2109C3.33452 10.4581 3.55185 10.6648 3.81605 10.831C4.08026 10.9929 4.35724 11.1271 4.64702 11.2337C4.93679 11.3359 5.20312 11.419 5.44602 11.483L6.77557 11.8409C7.11648 11.9304 7.49574 12.054 7.91335 12.2116C8.33523 12.3693 8.73793 12.5845 9.12145 12.8572C9.50923 13.1257 9.82884 13.4709 10.0803 13.8928C10.3317 14.3146 10.4574 14.8324 10.4574 15.446C10.4574 16.1534 10.272 16.7926 9.90128 17.3636C9.5348 17.9347 8.99787 18.3885 8.29048 18.7251C7.58736 19.0618 6.73295 19.2301 5.72727 19.2301C4.78977 19.2301 3.97798 19.0788 3.2919 18.7763C2.61009 18.4737 2.07315 18.0518 1.68111 17.5107C1.29332 16.9695 1.07386 16.3409 1.02273 15.625H2.65909C2.7017 16.1193 2.8679 16.5284 3.15767 16.8523C3.4517 17.1719 3.82244 17.4105 4.26989 17.5682C4.72159 17.7216 5.20739 17.7983 5.72727 17.7983C6.33239 17.7983 6.87571 17.7003 7.35724 17.5043C7.83878 17.304 8.22017 17.027 8.50142 16.6733C8.78267 16.3153 8.9233 15.8977 8.9233 15.4205C8.9233 14.9858 8.80185 14.6321 8.55895 14.3594C8.31605 14.0866 7.99645 13.8651 7.60014 13.6946C7.20384 13.5241 6.77557 13.375 6.31534 13.2472L4.70455 12.7869C3.68182 12.4929 2.87216 12.0732 2.27557 11.5277C1.67898 10.9822 1.38068 10.2685 1.38068 9.38636C1.38068 8.65341 1.57884 8.0142 1.97514 7.46875C2.37571 6.91903 2.91264 6.4929 3.58594 6.19034C4.26349 5.88352 5.01989 5.73011 5.85511 5.73011C6.69886 5.73011 7.44886 5.88139 8.10511 6.18395C8.76136 6.48224 9.28125 6.89133 9.66477 7.41122C10.0526 7.93111 10.2571 8.52131 10.2784 9.18182H8.74432ZM17.127 5.29545L12.9083 20.9688H11.5276L15.7464 5.29545H17.127ZM23.6412 19L29.4963 7.41761V7.31534H22.7463V5.90909H31.1327V7.39205L25.3032 19H23.6412ZM33.1809 17.2102L33.0786 17.9006C33.0062 18.3864 32.8954 18.9062 32.7463 19.4602C32.6014 20.0142 32.4501 20.5362 32.2924 21.0263C32.1348 21.5163 32.0048 21.9063 31.9025 22.196H30.7519C30.8073 21.9233 30.8798 21.5632 30.9693 21.1158C31.0588 20.6683 31.1482 20.1676 31.2377 19.6136C31.3315 19.0639 31.4082 18.5014 31.4678 17.9261L31.5446 17.2102H33.1809ZM39.4031 19.179C38.4401 19.179 37.6197 18.9169 36.9422 18.3928C36.2646 17.8643 35.7469 17.0994 35.3889 16.098C35.031 15.0923 34.852 13.8778 34.852 12.4545C34.852 11.0398 35.031 9.83168 35.3889 8.83026C35.7511 7.82457 36.271 7.05753 36.9486 6.52912C37.6304 5.99645 38.4486 5.73011 39.4031 5.73011C40.3577 5.73011 41.1737 5.99645 41.8513 6.52912C42.5331 7.05753 43.053 7.82457 43.4109 8.83026C43.7732 9.83168 43.9543 11.0398 43.9543 12.4545C43.9543 13.8778 43.7753 15.0923 43.4173 16.098C43.0594 17.0994 42.5416 17.8643 41.8641 18.3928C41.1865 18.9169 40.3662 19.179 39.4031 19.179ZM39.4031 17.7727C40.3577 17.7727 41.0991 17.3125 41.6276 16.392C42.156 15.4716 42.4202 14.1591 42.4202 12.4545C42.4202 11.321 42.2987 10.3558 42.0558 9.55895C41.8172 8.76207 41.472 8.15483 41.0203 7.73722C40.5729 7.3196 40.0338 7.1108 39.4031 7.1108C38.4571 7.1108 37.7178 7.57741 37.1851 8.51065C36.6524 9.43963 36.3861 10.7543 36.3861 12.4545C36.3861 13.5881 36.5054 14.5511 36.744 15.3438C36.9827 16.1364 37.3257 16.7393 37.7732 17.1527C38.2249 17.5661 38.7682 17.7727 39.4031 17.7727ZM50.2931 19.179C49.3301 19.179 48.5097 18.9169 47.8322 18.3928C47.1546 17.8643 46.6369 17.0994 46.2789 16.098C45.921 15.0923 45.742 13.8778 45.742 12.4545C45.742 11.0398 45.921 9.83168 46.2789 8.83026C46.6411 7.82457 47.161 7.05753 47.8386 6.52912C48.5204 5.99645 49.3386 5.73011 50.2931 5.73011C51.2477 5.73011 52.0637 5.99645 52.7413 6.52912C53.4231 7.05753 53.943 7.82457 54.3009 8.83026C54.6632 9.83168 54.8443 11.0398 54.8443 12.4545C54.8443 13.8778 54.6653 15.0923 54.3073 16.098C53.9494 17.0994 53.4316 17.8643 52.7541 18.3928C52.0765 18.9169 51.2562 19.179 50.2931 19.179ZM50.2931 17.7727C51.2477 17.7727 51.9891 17.3125 52.5176 16.392C53.046 15.4716 53.3102 14.1591 53.3102 12.4545C53.3102 11.321 53.1887 10.3558 52.9458 9.55895C52.7072 8.76207 52.362 8.15483 51.9103 7.73722C51.4629 7.3196 50.9238 7.1108 50.2931 7.1108C49.3471 7.1108 48.6078 7.57741 48.0751 8.51065C47.5424 9.43963 47.2761 10.7543 47.2761 12.4545C47.2761 13.5881 47.3954 14.5511 47.634 15.3438C47.8727 16.1364 48.2157 16.7393 48.6632 17.1527C49.1149 17.5661 49.6582 17.7727 50.2931 17.7727ZM61.1831 19.179C60.2201 19.179 59.3997 18.9169 58.7222 18.3928C58.0446 17.8643 57.5269 17.0994 57.1689 16.098C56.811 15.0923 56.632 13.8778 56.632 12.4545C56.632 11.0398 56.811 9.83168 57.1689 8.83026C57.5311 7.82457 58.051 7.05753 58.7286 6.52912C59.4104 5.99645 60.2286 5.73011 61.1831 5.73011C62.1377 5.73011 62.9537 5.99645 63.6313 6.52912C64.3131 7.05753 64.833 7.82457 65.1909 8.83026C65.5532 9.83168 65.7343 11.0398 65.7343 12.4545C65.7343 13.8778 65.5553 15.0923 65.1973 16.098C64.8394 17.0994 64.3216 17.8643 63.6441 18.3928C62.9665 18.9169 62.1462 19.179 61.1831 19.179ZM61.1831 17.7727C62.1377 17.7727 62.8791 17.3125 63.4076 16.392C63.936 15.4716 64.2002 14.1591 64.2002 12.4545C64.2002 11.321 64.0787 10.3558 63.8358 9.55895C63.5972 8.76207 63.252 8.15483 62.8003 7.73722C62.3529 7.3196 61.8138 7.1108 61.1831 7.1108C60.2371 7.1108 59.4978 7.57741 58.9651 8.51065C58.4324 9.43963 58.1661 10.7543 58.1661 12.4545C58.1661 13.5881 58.2854 14.5511 58.524 15.3438C58.7627 16.1364 59.1057 16.7393 59.5532 17.1527C60.0049 17.5661 60.5482 17.7727 61.1831 17.7727Z" fill="#4F46E5"/>
<path d="M75.1563 9.86364L72.3438 20.3125H71.4234L74.2359 9.86364H75.1563ZM84.6325 12.4545C84.5814 12.0227 84.374 11.6875 84.0104 11.4489C83.6467 11.2102 83.2007 11.0909 82.6723 11.0909C82.2859 11.0909 81.9479 11.1534 81.6581 11.2784C81.3712 11.4034 81.1467 11.5753 80.9848 11.794C80.8257 12.0128 80.7462 12.2614 80.7462 12.5398C80.7462 12.7727 80.8016 12.973 80.9123 13.1406C81.026 13.3054 81.1709 13.4432 81.347 13.554C81.5231 13.6619 81.7078 13.7514 81.901 13.8224C82.0942 13.8906 82.2717 13.946 82.4337 13.9886L83.32 14.2273C83.5473 14.2869 83.8001 14.3693 84.0785 14.4744C84.3598 14.5795 84.6283 14.723 84.8839 14.9048C85.1425 15.0838 85.3555 15.3139 85.5231 15.5952C85.6908 15.8764 85.7746 16.2216 85.7746 16.6307C85.7746 17.1023 85.651 17.5284 85.4038 17.9091C85.1595 18.2898 84.8016 18.5923 84.33 18.8168C83.8612 19.0412 83.2916 19.1534 82.6212 19.1534C81.9962 19.1534 81.455 19.0526 80.9976 18.8509C80.543 18.6491 80.1851 18.3679 79.9237 18.0071C79.6652 17.6463 79.5189 17.2273 79.4848 16.75H80.5757C80.6041 17.0795 80.7149 17.3523 80.9081 17.5682C81.1041 17.7812 81.3513 17.9403 81.6496 18.0455C81.9507 18.1477 82.2746 18.1989 82.6212 18.1989C83.0246 18.1989 83.3868 18.1335 83.7078 18.0028C84.0288 17.8693 84.2831 17.6847 84.4706 17.4489C84.6581 17.2102 84.7518 16.9318 84.7518 16.6136C84.7518 16.3239 84.6709 16.0881 84.5089 15.9062C84.347 15.7244 84.1339 15.5767 83.8697 15.4631C83.6055 15.3494 83.32 15.25 83.0132 15.1648L81.9393 14.858C81.2575 14.6619 80.7177 14.3821 80.32 14.0185C79.9223 13.6548 79.7234 13.179 79.7234 12.5909C79.7234 12.1023 79.8555 11.6761 80.1197 11.3125C80.3868 10.946 80.7447 10.6619 81.1936 10.4602C81.6453 10.2557 82.1496 10.1534 82.7064 10.1534C83.2689 10.1534 83.7689 10.2543 84.2064 10.456C84.6439 10.6548 84.9905 10.9276 85.2462 11.2741C85.5047 11.6207 85.641 12.0142 85.6552 12.4545H84.6325ZM90.461 9.86364L87.6485 20.3125H86.728L89.5405 9.86364H90.461ZM98.0792 10.2727V19H97.0224V11.3807H96.9713L94.8406 12.7955V11.7216L97.0224 10.2727H98.0792ZM103.436 19.1193C102.794 19.1193 102.247 18.9446 101.795 18.5952C101.343 18.2429 100.998 17.733 100.76 17.0653C100.521 16.3949 100.402 15.5852 100.402 14.6364C100.402 13.6932 100.521 12.8878 100.76 12.2202C101.001 11.5497 101.348 11.0384 101.799 10.6861C102.254 10.331 102.799 10.1534 103.436 10.1534C104.072 10.1534 104.616 10.331 105.068 10.6861C105.522 11.0384 105.869 11.5497 106.108 12.2202C106.349 12.8878 106.47 13.6932 106.47 14.6364C106.47 15.5852 106.351 16.3949 106.112 17.0653C105.873 17.733 105.528 18.2429 105.076 18.5952C104.625 18.9446 104.078 19.1193 103.436 19.1193ZM103.436 18.1818C104.072 18.1818 104.566 17.875 104.919 17.2614C105.271 16.6477 105.447 15.7727 105.447 14.6364C105.447 13.8807 105.366 13.2372 105.204 12.706C105.045 12.1747 104.815 11.7699 104.514 11.4915C104.216 11.2131 103.856 11.0739 103.436 11.0739C102.805 11.0739 102.312 11.3849 101.957 12.0071C101.602 12.6264 101.424 13.5028 101.424 14.6364C101.424 15.392 101.504 16.0341 101.663 16.5625C101.822 17.0909 102.051 17.4929 102.349 17.7685C102.65 18.044 103.012 18.1818 103.436 18.1818ZM109.302 17.8068L109.233 18.267C109.185 18.5909 109.111 18.9375 109.012 19.3068C108.915 19.6761 108.814 20.0241 108.709 20.3509C108.604 20.6776 108.517 20.9375 108.449 21.1307H107.682C107.719 20.9489 107.767 20.7088 107.827 20.4105C107.887 20.1122 107.946 19.7784 108.006 19.4091C108.069 19.0426 108.12 18.6676 108.16 18.2841L108.211 17.8068H109.302ZM113.69 19.1193C113.048 19.1193 112.501 18.9446 112.049 18.5952C111.597 18.2429 111.252 17.733 111.014 17.0653C110.775 16.3949 110.656 15.5852 110.656 14.6364C110.656 13.6932 110.775 12.8878 111.014 12.2202C111.255 11.5497 111.602 11.0384 112.053 10.6861C112.508 10.331 113.053 10.1534 113.69 10.1534C114.326 10.1534 114.87 10.331 115.322 10.6861C115.776 11.0384 116.123 11.5497 116.362 12.2202C116.603 12.8878 116.724 13.6932 116.724 14.6364C116.724 15.5852 116.604 16.3949 116.366 17.0653C116.127 17.733 115.782 18.2429 115.33 18.5952C114.879 18.9446 114.332 19.1193 113.69 19.1193ZM113.69 18.1818C114.326 18.1818 114.82 17.875 115.173 17.2614C115.525 16.6477 115.701 15.7727 115.701 14.6364C115.701 13.8807 115.62 13.2372 115.458 12.706C115.299 12.1747 115.069 11.7699 114.768 11.4915C114.47 11.2131 114.11 11.0739 113.69 11.0739C113.059 11.0739 112.566 11.3849 112.211 12.0071C111.856 12.6264 111.678 13.5028 111.678 14.6364C111.678 15.392 111.758 16.0341 111.917 16.5625C112.076 17.0909 112.305 17.4929 112.603 17.7685C112.904 18.044 113.266 18.1818 113.69 18.1818ZM121.19 19.1193C120.548 19.1193 120.001 18.9446 119.549 18.5952C119.097 18.2429 118.752 17.733 118.514 17.0653C118.275 16.3949 118.156 15.5852 118.156 14.6364C118.156 13.6932 118.275 12.8878 118.514 12.2202C118.755 11.5497 119.102 11.0384 119.553 10.6861C120.008 10.331 120.553 10.1534 121.19 10.1534C121.826 10.1534 122.37 10.331 122.822 10.6861C123.276 11.0384 123.623 11.5497 123.862 12.2202C124.103 12.8878 124.224 13.6932 124.224 14.6364C124.224 15.5852 124.104 16.3949 123.866 17.0653C123.627 17.733 123.282 18.2429 122.83 18.5952C122.379 18.9446 121.832 19.1193 121.19 19.1193ZM121.19 18.1818C121.826 18.1818 122.32 17.875 122.673 17.2614C123.025 16.6477 123.201 15.7727 123.201 14.6364C123.201 13.8807 123.12 13.2372 122.958 12.706C122.799 12.1747 122.569 11.7699 122.268 11.4915C121.97 11.2131 121.61 11.0739 121.19 11.0739C120.559 11.0739 120.066 11.3849 119.711 12.0071C119.356 12.6264 119.178 13.5028 119.178 14.6364C119.178 15.392 119.258 16.0341 119.417 16.5625C119.576 17.0909 119.805 17.4929 120.103 17.7685C120.404 18.044 120.766 18.1818 121.19 18.1818ZM128.69 19.1193C128.048 19.1193 127.501 18.9446 127.049 18.5952C126.597 18.2429 126.252 17.733 126.014 17.0653C125.775 16.3949 125.656 15.5852 125.656 14.6364C125.656 13.6932 125.775 12.8878 126.014 12.2202C126.255 11.5497 126.602 11.0384 127.053 10.6861C127.508 10.331 128.053 10.1534 128.69 10.1534C129.326 10.1534 129.87 10.331 130.322 10.6861C130.776 11.0384 131.123 11.5497 131.362 12.2202C131.603 12.8878 131.724 13.6932 131.724 14.6364C131.724 15.5852 131.604 16.3949 131.366 17.0653C131.127 17.733 130.782 18.2429 130.33 18.5952C129.879 18.9446 129.332 19.1193 128.69 19.1193ZM128.69 18.1818C129.326 18.1818 129.82 17.875 130.173 17.2614C130.525 16.6477 130.701 15.7727 130.701 14.6364C130.701 13.8807 130.62 13.2372 130.458 12.706C130.299 12.1747 130.069 11.7699 129.768 11.4915C129.47 11.2131 129.11 11.0739 128.69 11.0739C128.059 11.0739 127.566 11.3849 127.211 12.0071C126.856 12.6264 126.678 13.5028 126.678 14.6364C126.678 15.392 126.758 16.0341 126.917 16.5625C127.076 17.0909 127.305 17.4929 127.603 17.7685C127.904 18.044 128.266 18.1818 128.69 18.1818Z" fill="#B8B6F7"/>
<path d="M343.372 19L347.926 9.99148V9.91193H342.676V8.81818H349.199V9.97159L344.665 19H343.372ZM354.154 19.1392C353.405 19.1392 352.767 18.9354 352.24 18.5277C351.713 18.1167 351.311 17.5218 351.032 16.7429C350.754 15.9607 350.615 15.0161 350.615 13.9091C350.615 12.8087 350.754 11.8691 351.032 11.0902C351.314 10.308 351.718 9.71141 352.245 9.30043C352.776 8.88613 353.412 8.67898 354.154 8.67898C354.897 8.67898 355.531 8.88613 356.058 9.30043C356.589 9.71141 356.993 10.308 357.271 11.0902C357.553 11.8691 357.694 12.8087 357.694 13.9091C357.694 15.0161 357.555 15.9607 357.276 16.7429C356.998 17.5218 356.595 18.1167 356.068 18.5277C355.541 18.9354 354.903 19.1392 354.154 19.1392ZM354.154 18.0455C354.897 18.0455 355.473 17.6875 355.884 16.9716C356.295 16.2557 356.501 15.2348 356.501 13.9091C356.501 13.0275 356.406 12.2768 356.218 11.657C356.032 11.0372 355.763 10.5649 355.412 10.2401C355.064 9.91525 354.645 9.75284 354.154 9.75284C353.419 9.75284 352.843 10.1158 352.429 10.8416C352.015 11.5642 351.808 12.5866 351.808 13.9091C351.808 14.7907 351.901 15.5398 352.086 16.1562C352.272 16.7727 352.539 17.2417 352.887 17.5632C353.238 17.8847 353.66 18.0455 354.154 18.0455ZM364.774 17.0909V16.554C364.774 16.1828 364.85 15.843 365.002 15.5348C365.158 15.2232 365.383 14.9747 365.678 14.7891C365.977 14.6001 366.338 14.5057 366.762 14.5057C367.193 14.5057 367.554 14.6001 367.846 14.7891C368.138 14.9747 368.358 15.2232 368.507 15.5348C368.656 15.843 368.731 16.1828 368.731 16.554V17.0909C368.731 17.4621 368.655 17.8035 368.502 18.1151C368.353 18.4233 368.131 18.6719 367.836 18.8608C367.544 19.0464 367.186 19.1392 366.762 19.1392C366.331 19.1392 365.968 19.0464 365.673 18.8608C365.378 18.6719 365.155 18.4233 365.002 18.1151C364.85 17.8035 364.774 17.4621 364.774 17.0909ZM365.788 16.554V17.0909C365.788 17.3991 365.861 17.6759 366.007 17.9212C366.152 18.1631 366.404 18.2841 366.762 18.2841C367.11 18.2841 367.356 18.1631 367.498 17.9212C367.644 17.6759 367.717 17.3991 367.717 17.0909V16.554C367.717 16.2457 367.647 15.9706 367.508 15.7287C367.369 15.4834 367.12 15.3608 366.762 15.3608C366.414 15.3608 366.164 15.4834 366.012 15.7287C365.862 15.9706 365.788 16.2457 365.788 16.554ZM359.703 11.2642V10.7273C359.703 10.3561 359.779 10.0163 359.931 9.7081C360.087 9.39654 360.312 9.14796 360.607 8.96236C360.906 8.77344 361.267 8.67898 361.691 8.67898C362.122 8.67898 362.483 8.77344 362.775 8.96236C363.067 9.14796 363.287 9.39654 363.436 9.7081C363.585 10.0163 363.66 10.3561 363.66 10.7273V11.2642C363.66 11.6354 363.584 11.9768 363.431 12.2884C363.282 12.5966 363.06 12.8452 362.765 13.0341C362.473 13.2197 362.115 13.3125 361.691 13.3125C361.26 13.3125 360.897 13.2197 360.602 13.0341C360.307 12.8452 360.084 12.5966 359.931 12.2884C359.779 11.9768 359.703 11.6354 359.703 11.2642ZM360.717 10.7273V11.2642C360.717 11.5724 360.79 11.8492 360.936 12.0945C361.081 12.3364 361.333 12.4574 361.691 12.4574C362.039 12.4574 362.285 12.3364 362.427 12.0945C362.573 11.8492 362.646 11.5724 362.646 11.2642V10.7273C362.646 10.419 362.576 10.1439 362.437 9.90199C362.298 9.65672 362.049 9.53409 361.691 9.53409C361.343 9.53409 361.093 9.65672 360.941 9.90199C360.791 10.1439 360.717 10.419 360.717 10.7273ZM360.08 19L367.08 8.81818H368.214L361.214 19H360.08Z" fill="#5B6776"/>
<rect y="28" width="370" height="10" rx="5" fill="#F7F8FD"/>
<rect y="28" width="283.3" height="10" rx="5" fill="#4F46E5"/>
</svg>
