<svg width="365" height="38" viewBox="0 0 365 38" fill="none" xmlns="http://www.w3.org/2000/svg">
<path d="M8.74432 9.18182C8.66761 8.53409 8.35653 8.03125 7.81108 7.6733C7.26563 7.31534 6.59659 7.13636 5.80398 7.13636C5.22443 7.13636 4.71733 7.23011 4.28267 7.41761C3.85227 7.60511 3.51563 7.86293 3.27273 8.19105C3.03409 8.51918 2.91477 8.89204 2.91477 9.30966C2.91477 9.65909 2.99787 9.95952 3.16406 10.2109C3.33452 10.4581 3.55185 10.6648 3.81605 10.831C4.08026 10.9929 4.35724 11.1271 4.64702 11.2337C4.93679 11.3359 5.20312 11.419 5.44602 11.483L6.77557 11.8409C7.11648 11.9304 7.49574 12.054 7.91335 12.2116C8.33523 12.3693 8.73793 12.5845 9.12145 12.8572C9.50923 13.1257 9.82884 13.4709 10.0803 13.8928C10.3317 14.3146 10.4574 14.8324 10.4574 15.446C10.4574 16.1534 10.272 16.7926 9.90128 17.3636C9.5348 17.9347 8.99787 18.3885 8.29048 18.7251C7.58736 19.0618 6.73295 19.2301 5.72727 19.2301C4.78977 19.2301 3.97798 19.0788 3.2919 18.7763C2.61009 18.4737 2.07315 18.0518 1.68111 17.5107C1.29332 16.9695 1.07386 16.3409 1.02273 15.625H2.65909C2.7017 16.1193 2.8679 16.5284 3.15767 16.8523C3.4517 17.1719 3.82244 17.4105 4.26989 17.5682C4.72159 17.7216 5.20739 17.7983 5.72727 17.7983C6.33239 17.7983 6.87571 17.7003 7.35724 17.5043C7.83878 17.304 8.22017 17.027 8.50142 16.6733C8.78267 16.3153 8.9233 15.8977 8.9233 15.4205C8.9233 14.9858 8.80185 14.6321 8.55895 14.3594C8.31605 14.0866 7.99645 13.8651 7.60014 13.6946C7.20384 13.5241 6.77557 13.375 6.31534 13.2472L4.70455 12.7869C3.68182 12.4929 2.87216 12.0732 2.27557 11.5277C1.67898 10.9822 1.38068 10.2685 1.38068 9.38636C1.38068 8.65341 1.57884 8.0142 1.97514 7.46875C2.37571 6.91903 2.91264 6.4929 3.58594 6.19034C4.26349 5.88352 5.01989 5.73011 5.85511 5.73011C6.69886 5.73011 7.44886 5.88139 8.10511 6.18395C8.76136 6.48224 9.28125 6.89133 9.66477 7.41122C10.0526 7.93111 10.2571 8.52131 10.2784 9.18182H8.74432ZM17.127 5.29545L12.9083 20.9688H11.5276L15.7464 5.29545H17.127ZM23.2321 19V17.8494L27.5532 13.1193C28.0603 12.5653 28.4779 12.0838 28.806 11.6747C29.1341 11.2614 29.377 10.8736 29.5347 10.5114C29.6966 10.1449 29.7776 9.76136 29.7776 9.3608C29.7776 8.90057 29.6668 8.50213 29.4452 8.16548C29.2279 7.82883 28.9296 7.56889 28.5503 7.38565C28.1711 7.20241 27.7449 7.1108 27.2719 7.1108C26.7691 7.1108 26.3302 7.2152 25.9552 7.42401C25.5844 7.62855 25.2968 7.91619 25.0922 8.28693C24.8919 8.65767 24.7918 9.09233 24.7918 9.59091H23.2833C23.2833 8.82386 23.4601 8.15057 23.8138 7.57102C24.1675 6.99148 24.649 6.53977 25.2584 6.21591C25.8721 5.89204 26.5603 5.73011 27.3231 5.73011C28.0901 5.73011 28.7698 5.89204 29.3621 6.21591C29.9544 6.53977 30.4189 6.97656 30.7556 7.52628C31.0922 8.07599 31.2606 8.6875 31.2606 9.3608C31.2606 9.84233 31.1732 10.3132 30.9985 10.7734C30.828 11.2294 30.5297 11.7386 30.1036 12.3011C29.6817 12.8594 29.0958 13.5412 28.3458 14.3466L25.4054 17.4915V17.5938H31.4907V19H23.2321ZM38.0405 19.179C37.0774 19.179 36.2571 18.9169 35.5795 18.3928C34.902 17.8643 34.3842 17.0994 34.0263 16.098C33.6683 15.0923 33.4893 13.8778 33.4893 12.4545C33.4893 11.0398 33.6683 9.83168 34.0263 8.83026C34.3885 7.82457 34.9084 7.05753 35.5859 6.52912C36.2677 5.99645 37.0859 5.73011 38.0405 5.73011C38.995 5.73011 39.8111 5.99645 40.4886 6.52912C41.1704 7.05753 41.6903 7.82457 42.0483 8.83026C42.4105 9.83168 42.5916 11.0398 42.5916 12.4545C42.5916 13.8778 42.4126 15.0923 42.0547 16.098C41.6967 17.0994 41.179 17.8643 40.5014 18.3928C39.8239 18.9169 39.0035 19.179 38.0405 19.179ZM38.0405 17.7727C38.995 17.7727 39.7365 17.3125 40.2649 16.392C40.7933 15.4716 41.0575 14.1591 41.0575 12.4545C41.0575 11.321 40.9361 10.3558 40.6932 9.55895C40.4545 8.76207 40.1094 8.15483 39.6577 7.73722C39.2102 7.3196 38.6712 7.1108 38.0405 7.1108C37.0944 7.1108 36.3551 7.57741 35.8224 8.51065C35.2898 9.43963 35.0234 10.7543 35.0234 12.4545C35.0234 13.5881 35.1427 14.5511 35.3814 15.3438C35.62 16.1364 35.9631 16.7393 36.4105 17.1527C36.8622 17.5661 37.4055 17.7727 38.0405 17.7727ZM48.9305 19.179C47.9674 19.179 47.1471 18.9169 46.4695 18.3928C45.792 17.8643 45.2742 17.0994 44.9163 16.098C44.5583 15.0923 44.3793 13.8778 44.3793 12.4545C44.3793 11.0398 44.5583 9.83168 44.9163 8.83026C45.2785 7.82457 45.7984 7.05753 46.4759 6.52912C47.1577 5.99645 47.9759 5.73011 48.9305 5.73011C49.885 5.73011 50.7011 5.99645 51.3786 6.52912C52.0604 7.05753 52.5803 7.82457 52.9383 8.83026C53.3005 9.83168 53.4816 11.0398 53.4816 12.4545C53.4816 13.8778 53.3026 15.0923 52.9447 16.098C52.5867 17.0994 52.069 17.8643 51.3914 18.3928C50.7139 18.9169 49.8935 19.179 48.9305 19.179ZM48.9305 17.7727C49.885 17.7727 50.6265 17.3125 51.1549 16.392C51.6833 15.4716 51.9475 14.1591 51.9475 12.4545C51.9475 11.321 51.8261 10.3558 51.5832 9.55895C51.3445 8.76207 50.9994 8.15483 50.5477 7.73722C50.1002 7.3196 49.5612 7.1108 48.9305 7.1108C47.9844 7.1108 47.2451 7.57741 46.7124 8.51065C46.1798 9.43963 45.9134 10.7543 45.9134 12.4545C45.9134 13.5881 46.0327 14.5511 46.2714 15.3438C46.51 16.1364 46.8531 16.7393 47.3005 17.1527C47.7522 17.5661 48.2955 17.7727 48.9305 17.7727Z" fill="#4F46E5"/>
<path d="M62.9037 9.86364L60.0912 20.3125H59.1707L61.9832 9.86364H62.9037ZM72.3799 12.4545C72.3287 12.0227 72.1213 11.6875 71.7577 11.4489C71.3941 11.2102 70.948 11.0909 70.4196 11.0909C70.0333 11.0909 69.6952 11.1534 69.4054 11.2784C69.1185 11.4034 68.8941 11.5753 68.7321 11.794C68.573 12.0128 68.4935 12.2614 68.4935 12.5398C68.4935 12.7727 68.5489 12.973 68.6597 13.1406C68.7733 13.3054 68.9182 13.4432 69.0943 13.554C69.2705 13.6619 69.4551 13.7514 69.6483 13.8224C69.8415 13.8906 70.0191 13.946 70.181 13.9886L71.0674 14.2273C71.2946 14.2869 71.5475 14.3693 71.8259 14.4744C72.1071 14.5795 72.3756 14.723 72.6313 14.9048C72.8898 15.0838 73.1029 15.3139 73.2705 15.5952C73.4381 15.8764 73.5219 16.2216 73.5219 16.6307C73.5219 17.1023 73.3983 17.5284 73.1512 17.9091C72.9069 18.2898 72.5489 18.5923 72.0773 18.8168C71.6086 19.0412 71.039 19.1534 70.3685 19.1534C69.7435 19.1534 69.2023 19.0526 68.7449 18.8509C68.2904 18.6491 67.9324 18.3679 67.6711 18.0071C67.4125 17.6463 67.2662 17.2273 67.2321 16.75H68.323C68.3515 17.0795 68.4622 17.3523 68.6554 17.5682C68.8515 17.7812 69.0986 17.9403 69.3969 18.0455C69.698 18.1477 70.0219 18.1989 70.3685 18.1989C70.7719 18.1989 71.1341 18.1335 71.4551 18.0028C71.7762 17.8693 72.0304 17.6847 72.2179 17.4489C72.4054 17.2102 72.4992 16.9318 72.4992 16.6136C72.4992 16.3239 72.4182 16.0881 72.2563 15.9062C72.0944 15.7244 71.8813 15.5767 71.6171 15.4631C71.3529 15.3494 71.0674 15.25 70.7605 15.1648L69.6867 14.858C69.0049 14.6619 68.4651 14.3821 68.0674 14.0185C67.6696 13.6548 67.4708 13.179 67.4708 12.5909C67.4708 12.1023 67.6029 11.6761 67.8671 11.3125C68.1341 10.946 68.4921 10.6619 68.9409 10.4602C69.3926 10.2557 69.8969 10.1534 70.4537 10.1534C71.0162 10.1534 71.5162 10.2543 71.9537 10.456C72.3912 10.6548 72.7378 10.9276 72.9935 11.2741C73.252 11.6207 73.3884 12.0142 73.4026 12.4545H72.3799ZM78.2083 9.86364L75.3958 20.3125H74.4754L77.2879 9.86364H78.2083ZM85.8266 10.2727V19H84.7698V11.3807H84.7186L82.588 12.7955V11.7216L84.7698 10.2727H85.8266ZM91.1831 19.1193C90.5411 19.1193 89.9942 18.9446 89.5425 18.5952C89.0908 18.2429 88.7456 17.733 88.507 17.0653C88.2684 16.3949 88.149 15.5852 88.149 14.6364C88.149 13.6932 88.2684 12.8878 88.507 12.2202C88.7485 11.5497 89.0951 11.0384 89.5468 10.6861C90.0013 10.331 90.5468 10.1534 91.1831 10.1534C91.8195 10.1534 92.3635 10.331 92.8152 10.6861C93.2698 11.0384 93.6164 11.5497 93.855 12.2202C94.0965 12.8878 94.2172 13.6932 94.2172 14.6364C94.2172 15.5852 94.0979 16.3949 93.8593 17.0653C93.6206 17.733 93.2755 18.2429 92.8238 18.5952C92.372 18.9446 91.8252 19.1193 91.1831 19.1193ZM91.1831 18.1818C91.8195 18.1818 92.3138 17.875 92.6661 17.2614C93.0184 16.6477 93.1945 15.7727 93.1945 14.6364C93.1945 13.8807 93.1135 13.2372 92.9516 12.706C92.7925 12.1747 92.5624 11.7699 92.2613 11.4915C91.963 11.2131 91.6036 11.0739 91.1831 11.0739C90.5524 11.0739 90.0595 11.3849 89.7044 12.0071C89.3493 12.6264 89.1718 13.5028 89.1718 14.6364C89.1718 15.392 89.2513 16.0341 89.4104 16.5625C89.5695 17.0909 89.7982 17.4929 90.0965 17.7685C90.3976 18.044 90.7598 18.1818 91.1831 18.1818ZM98.6831 19.1193C98.0411 19.1193 97.4942 18.9446 97.0425 18.5952C96.5908 18.2429 96.2456 17.733 96.007 17.0653C95.7684 16.3949 95.649 15.5852 95.649 14.6364C95.649 13.6932 95.7684 12.8878 96.007 12.2202C96.2485 11.5497 96.5951 11.0384 97.0468 10.6861C97.5013 10.331 98.0468 10.1534 98.6831 10.1534C99.3195 10.1534 99.8635 10.331 100.315 10.6861C100.77 11.0384 101.116 11.5497 101.355 12.2202C101.596 12.8878 101.717 13.6932 101.717 14.6364C101.717 15.5852 101.598 16.3949 101.359 17.0653C101.121 17.733 100.775 18.2429 100.324 18.5952C99.872 18.9446 99.3252 19.1193 98.6831 19.1193ZM98.6831 18.1818C99.3195 18.1818 99.8138 17.875 100.166 17.2614C100.518 16.6477 100.694 15.7727 100.694 14.6364C100.694 13.8807 100.614 13.2372 100.452 12.706C100.293 12.1747 100.062 11.7699 99.7613 11.4915C99.463 11.2131 99.1036 11.0739 98.6831 11.0739C98.0524 11.0739 97.5595 11.3849 97.2044 12.0071C96.8493 12.6264 96.6718 13.5028 96.6718 14.6364C96.6718 15.392 96.7513 16.0341 96.9104 16.5625C97.0695 17.0909 97.2982 17.4929 97.5965 17.7685C97.8976 18.044 98.2598 18.1818 98.6831 18.1818ZM106.183 19.1193C105.541 19.1193 104.994 18.9446 104.543 18.5952C104.091 18.2429 103.746 17.733 103.507 17.0653C103.268 16.3949 103.149 15.5852 103.149 14.6364C103.149 13.6932 103.268 12.8878 103.507 12.2202C103.748 11.5497 104.095 11.0384 104.547 10.6861C105.001 10.331 105.547 10.1534 106.183 10.1534C106.819 10.1534 107.364 10.331 107.815 10.6861C108.27 11.0384 108.616 11.5497 108.855 12.2202C109.096 12.8878 109.217 13.6932 109.217 14.6364C109.217 15.5852 109.098 16.3949 108.859 17.0653C108.621 17.733 108.275 18.2429 107.824 18.5952C107.372 18.9446 106.825 19.1193 106.183 19.1193ZM106.183 18.1818C106.819 18.1818 107.314 17.875 107.666 17.2614C108.018 16.6477 108.194 15.7727 108.194 14.6364C108.194 13.8807 108.114 13.2372 107.952 12.706C107.793 12.1747 107.562 11.7699 107.261 11.4915C106.963 11.2131 106.604 11.0739 106.183 11.0739C105.552 11.0739 105.06 11.3849 104.704 12.0071C104.349 12.6264 104.172 13.5028 104.172 14.6364C104.172 15.392 104.251 16.0341 104.41 16.5625C104.569 17.0909 104.798 17.4929 105.096 17.7685C105.398 18.044 105.76 18.1818 106.183 18.1818Z" fill="#B8B6F7"/>
<path d="M335.054 19V18.1051L338.415 14.4261C338.809 13.9953 339.134 13.6207 339.389 13.3026C339.644 12.9811 339.833 12.6795 339.956 12.3977C340.082 12.1127 340.145 11.8144 340.145 11.5028C340.145 11.1449 340.059 10.835 339.886 10.5732C339.717 10.3113 339.485 10.1091 339.19 9.96662C338.895 9.8241 338.564 9.75284 338.196 9.75284C337.805 9.75284 337.464 9.83404 337.172 9.99645C336.884 10.1555 336.66 10.3793 336.501 10.6676C336.345 10.956 336.267 11.294 336.267 11.6818H335.094C335.094 11.0852 335.231 10.5616 335.506 10.1108C335.781 9.66004 336.156 9.30871 336.63 9.05682C337.107 8.80492 337.643 8.67898 338.236 8.67898C338.832 8.67898 339.361 8.80492 339.822 9.05682C340.282 9.30871 340.644 9.64844 340.906 10.076C341.167 10.5036 341.298 10.9792 341.298 11.5028C341.298 11.8774 341.23 12.2436 341.094 12.6016C340.962 12.9562 340.73 13.3523 340.398 13.7898C340.07 14.224 339.615 14.7543 339.031 15.3807L336.744 17.8267V17.9062H341.477V19H335.054ZM346.852 19.1392C346.103 19.1392 345.464 18.9354 344.938 18.5277C344.411 18.1167 344.008 17.5218 343.729 16.7429C343.451 15.9607 343.312 15.0161 343.312 13.9091C343.312 12.8087 343.451 11.8691 343.729 11.0902C344.011 10.308 344.415 9.71141 344.942 9.30043C345.473 8.88613 346.109 8.67898 346.852 8.67898C347.594 8.67898 348.229 8.88613 348.756 9.30043C349.286 9.71141 349.69 10.308 349.969 11.0902C350.25 11.8691 350.391 12.8087 350.391 13.9091C350.391 15.0161 350.252 15.9607 349.974 16.7429C349.695 17.5218 349.293 18.1167 348.766 18.5277C348.239 18.9354 347.601 19.1392 346.852 19.1392ZM346.852 18.0455C347.594 18.0455 348.171 17.6875 348.582 16.9716C348.993 16.2557 349.198 15.2348 349.198 13.9091C349.198 13.0275 349.104 12.2768 348.915 11.657C348.729 11.0372 348.461 10.5649 348.109 10.2401C347.761 9.91525 347.342 9.75284 346.852 9.75284C346.116 9.75284 345.541 10.1158 345.126 10.8416C344.712 11.5642 344.505 12.5866 344.505 13.9091C344.505 14.7907 344.598 15.5398 344.783 16.1562C344.969 16.7727 345.236 17.2417 345.584 17.5632C345.935 17.8847 346.358 18.0455 346.852 18.0455ZM357.471 17.0909V16.554C357.471 16.1828 357.547 15.843 357.7 15.5348C357.855 15.2232 358.081 14.9747 358.376 14.7891C358.674 14.6001 359.035 14.5057 359.46 14.5057C359.89 14.5057 360.252 14.6001 360.543 14.7891C360.835 14.9747 361.055 15.2232 361.205 15.5348C361.354 15.843 361.428 16.1828 361.428 16.554V17.0909C361.428 17.4621 361.352 17.8035 361.2 18.1151C361.05 18.4233 360.828 18.6719 360.533 18.8608C360.242 19.0464 359.884 19.1392 359.46 19.1392C359.029 19.1392 358.666 19.0464 358.371 18.8608C358.076 18.6719 357.852 18.4233 357.7 18.1151C357.547 17.8035 357.471 17.4621 357.471 17.0909ZM358.485 16.554V17.0909C358.485 17.3991 358.558 17.6759 358.704 17.9212C358.85 18.1631 359.102 18.2841 359.46 18.2841C359.808 18.2841 360.053 18.1631 360.195 17.9212C360.341 17.6759 360.414 17.3991 360.414 17.0909V16.554C360.414 16.2457 360.344 15.9706 360.205 15.7287C360.066 15.4834 359.817 15.3608 359.46 15.3608C359.112 15.3608 358.861 15.4834 358.709 15.7287C358.56 15.9706 358.485 16.2457 358.485 16.554ZM352.4 11.2642V10.7273C352.4 10.3561 352.476 10.0163 352.629 9.7081C352.784 9.39654 353.01 9.14796 353.305 8.96236C353.603 8.77344 353.964 8.67898 354.388 8.67898C354.819 8.67898 355.181 8.77344 355.472 8.96236C355.764 9.14796 355.984 9.39654 356.134 9.7081C356.283 10.0163 356.357 10.3561 356.357 10.7273V11.2642C356.357 11.6354 356.281 11.9768 356.129 12.2884C355.979 12.5966 355.757 12.8452 355.462 13.0341C355.171 13.2197 354.813 13.3125 354.388 13.3125C353.958 13.3125 353.595 13.2197 353.3 13.0341C353.005 12.8452 352.781 12.5966 352.629 12.2884C352.476 11.9768 352.4 11.6354 352.4 11.2642ZM353.414 10.7273V11.2642C353.414 11.5724 353.487 11.8492 353.633 12.0945C353.779 12.3364 354.031 12.4574 354.388 12.4574C354.737 12.4574 354.982 12.3364 355.124 12.0945C355.27 11.8492 355.343 11.5724 355.343 11.2642V10.7273C355.343 10.419 355.273 10.1439 355.134 9.90199C354.995 9.65672 354.746 9.53409 354.388 9.53409C354.04 9.53409 353.79 9.65672 353.638 9.90199C353.489 10.1439 353.414 10.419 353.414 10.7273ZM352.778 19L359.778 8.81818H360.911L353.911 19H352.778Z" fill="#5B6776"/>
<rect y="28" width="365" height="10" rx="5" fill="#F7F8FD"/>
<rect y="28" width="133.8" height="10" rx="5" fill="#4F46E5"/>
</svg>
